<?xml version="1.0" encoding="UTF-8" standalone="no"?>
<svg
   xmlns:dc="http://purl.org/dc/elements/1.1/"
   xmlns:cc="http://creativecommons.org/ns#"
   xmlns:rdf="http://www.w3.org/1999/02/22-rdf-syntax-ns#"
   xmlns:svg="http://www.w3.org/2000/svg"
   xmlns="http://www.w3.org/2000/svg"
   xmlns:sodipodi="http://sodipodi.sourceforge.net/DTD/sodipodi-0.dtd"
   xmlns:inkscape="http://www.inkscape.org/namespaces/inkscape"
   version="1.1"
   viewBox="0 0 817 676"
   id="svg29285"
   inkscape:version="0.91 r13725"
   sodipodi:docname="match-colour.svg">
  <defs
     id="defs29963" />
  <sodipodi:namedview
     pagecolor="#ffffff"
     bordercolor="#666666"
     borderopacity="1"
     objecttolerance="10"
     gridtolerance="10"
     guidetolerance="10"
     inkscape:pageopacity="0"
     inkscape:pageshadow="2"
     inkscape:window-width="1916"
     inkscape:window-height="1035"
     id="namedview29961"
     showgrid="false"
     inkscape:zoom="0.3732132"
     inkscape:cx="-23.854015"
     inkscape:cy="338"
     inkscape:window-x="4"
     inkscape:window-y="1"
     inkscape:window-maximized="1"
     inkscape:current-layer="#000000ff" />
  <g
     id="#000000ff"
     fill="#000000">
    <g
       id="g30519"
       transform="translate(-29.47377,-26.794337)">
      <path
         inkscape:connector-curvature="0"
         id="path30505"
         d="M 282.93295,47.964985 83.738002,300.44775 l -12.687576,7.61254 0,98.9631 2.537515,17.7626 95.156819,49.48155 64.70664,34.25646 121.80073,49.48154 93.88806,43.13776 1.26876,-6.34379 140.83209,52.01907 26.64391,12.68757 17.76261,-6.34379 8.8813,-11.41882 102.76937,-126.87576 41.869,-59.6316 0,-30.45019 13.95633,-65.97539 2.53752,-10.15006 -30.45018,-22.83764 -30.45018,-8.8813 -76.12546,-43.13776 -31.71894,-17.76261 5.07503,-15.22509 L 562.05962,184.99081 390.77734,101.2528 322.26443,72.071379 Z"
         style="fill:#b4a690;fill-opacity:1;fill-rule:evenodd;stroke:none;stroke-width:1px;stroke-linecap:butt;stroke-linejoin:miter;stroke-opacity:1" />
      <path
         inkscape:connector-curvature="0"
         id="path30517"
         d="M 289.27673,65.727591 105.30688,291.56645 159.86346,319.47911 441.52765,475.5363 565.86589,302.98526 619.15371,243.35366 479.59038,159.61565 334.95201,93.640259 296.88928,69.533864 l 5.07503,12.687576 -12.68758,6.343788 25.37516,15.225092 6.34378,-3.806273 1.26876,-3.806273 20.30012,10.150056 -3.80627,17.76261 25.37515,-3.80627 13.95634,5.07503 3.80627,12.68757 25.37515,3.80628 c 0,0 -1.26876,0 3.80627,1.26876 5.07503,1.26875 68.51292,30.45018 68.51292,30.45018 l 12.68757,12.68757 27.91267,12.68758 -10.15006,13.95633 19.03136,3.80628 1.26876,-8.88131 6.34379,0 -3.80628,20.30012 43.13776,3.80628 -8.8813,20.30012 21.56888,-2.53752 -12.68758,19.03137 -1.26875,-16.49385 -22.83764,8.8813 21.56888,7.61255 -34.25646,22.83764 24.1064,0 -19.03137,25.37515 -21.56888,-7.61255 -10.15006,26.64391 22.83764,-2.53751 -22.83764,19.03136 -12.68757,-21.56888 -7.61255,26.64391 15.22509,-1.26876 -7.61254,19.03137 -20.30012,2.53751 10.15006,12.68758 -8.88131,12.68757 -21.56888,-3.80627 11.41882,15.22509 0,5.07503 -26.64391,2.53752 16.49385,8.8813 -12.68757,12.68758 -5.07504,-16.49385 -20.30012,11.41882 -7.61254,-6.34379 2.53751,-12.68758 -11.41882,11.41882 -12.68757,-3.80627 12.68757,-19.03136 -24.10639,12.68757 -7.61255,-7.61254 5.07503,-20.30013 -19.03136,11.41882 -15.22509,-6.34379 7.61254,-15.22509 -15.22509,5.07503 -10.15006,-19.03136 -13.95633,10.15006 -49.48155,-26.64391 -2.53751,-12.68758 -20.30012,2.53752 -5.07504,-7.61255 5.07504,-20.30012 -19.03137,10.15006 1.26876,-16.49385 -10.15006,7.61255 -5.07503,-19.03136 -20.30012,12.68757 0,2.53752 3.80627,-15.22509 -17.76261,-6.34379 -2.53751,-10.15006 -12.68758,8.8813 -2.53751,-3.80627 6.34378,-20.30012 -3.80627,-2.53752 2.53752,-6.34379 13.95633,-1.26876 -3.80627,-5.07503 12.68757,-7.61254 -3.80627,-6.34379 12.68758,0 -1.26876,-16.49385 22.83764,-2.53751 -7.61255,-12.68758 11.41882,-16.49385 10.15006,2.53752 2.53751,-8.88131 0,-5.07503 6.34379,-1.26875 0,-11.41882 17.76261,5.07503 -2.53752,-21.56888 1.26876,-7.61255 12.68758,-2.53751 6.34379,-19.03137 12.68757,-13.95633 1.26876,-15.225092 3.80627,-19.031364 z"
         style="fill:#8fa08f;fill-opacity:1;fill-rule:evenodd;stroke:none;stroke-width:1px;stroke-linecap:butt;stroke-linejoin:miter;stroke-opacity:1" />
      <path
         inkscape:connector-curvature="0"
         id="path30513"
         d="m 375.55225,153.27187 -27.91267,8.8813 -46.94403,36.79397 -21.56888,30.45018 -5.07503,22.83764 15.22509,32.9877 27.91267,29.18142 11.41882,3.80627 1.26876,10.15007 26.64391,0 10.15006,2.53751 40.60024,-15.22509 31.71894,-16.49385 17.76261,-24.10639 3.80627,-26.64391 -1.26876,-32.9877 -17.7626,15.22509 7.61254,-39.33149 -2.53751,-32.98769 -3.80628,-3.80628 -43.13775,6.34379 -20.30013,8.88131 -16.49384,13.95633 3.80627,-11.41882 6.34379,-10.15006 z"
         style="fill:#b45054;fill-opacity:1;fill-rule:evenodd;stroke:none;stroke-width:1px;stroke-linecap:butt;stroke-linejoin:miter;stroke-opacity:1" />
      <path
         inkscape:connector-curvature="0"
         id="path30515"
         d="m 309.57686,297.91023 0,-26.64391 12.68757,-27.91266 22.83764,-25.37516 8.8813,-5.07503 -1.26876,13.95634 27.91267,-13.95634 27.91267,-10.15006 10.15006,-2.53751 -1.26876,32.9877 -3.80627,19.03136 -3.80627,3.80627 11.41882,-3.80627 -7.61255,20.30012 -25.37515,24.1064 -22.83764,13.95633 -10.15006,6.34379 -22.83764,3.80627 -7.61254,-2.53752 -5.07503,-5.07503 -3.80628,-5.07503 -11.41881,1.26876 z"
         style="fill:#e5bf73;fill-opacity:1;fill-rule:evenodd;stroke:none;stroke-width:1px;stroke-linecap:butt;stroke-linejoin:miter;stroke-opacity:1" />
      <path
         sodipodi:nodetypes="cccccccccccccccc"
         inkscape:connector-curvature="0"
         id="path30509"
         d="m 578.55347,329.62917 90.71617,37.42835 83.10362,47.57841 -40.60024,64.70664 -35.52522,40.60024 -44.40651,48.21279 -88.81303,-39.33148 -77.39422,-40.60025 -5.07503,-5.07503 0,-3.80627 5.07503,-5.07503 -5.07503,-5.07503 32.9877,-34.25646 24.10639,-38.06272 32.9877,-38.06273 z"
         style="fill:#d5b994;fill-opacity:1;fill-rule:evenodd;stroke:none;stroke-width:1px;stroke-linecap:butt;stroke-linejoin:miter;stroke-opacity:1" />
      <path
         inkscape:connector-curvature="0"
         id="path30507"
         d="m 93.888063,327.09166 31.718937,17.7626 60.90037,29.18143 60.90036,36.79397 78.66297,41.869 109.11316,46.94403 -3.80627,86.27552 -29.18143,-16.49385 -106.57564,-53.28782 -68.51291,-38.06273 -79.93173,-32.98769 -41.869,-20.30013 -17.762605,-15.22509 -1.268758,-41.869 0,-21.56888 2.537515,-13.95633 z"
         style="fill:#a6a3a3;fill-opacity:1;fill-rule:evenodd;stroke:none;stroke-width:1px;stroke-linecap:butt;stroke-linejoin:miter;stroke-opacity:1" />
      <path
         inkscape:connector-curvature="0"
         id="path30511"
         d="m 301.96431,305.52278 -40.60024,58.36285 31.71894,12.68757 40.60024,-46.94403 -1.26876,-8.8813 -13.95633,-7.61255 z"
         style="fill:#d5b994;fill-opacity:1;fill-rule:evenodd;stroke:none;stroke-width:1px;stroke-linecap:butt;stroke-linejoin:miter;stroke-opacity:1" />
      <path
         id="path29845"
         d="m 269.28,63.29 c 5.5,-5.37 10.42,-11.26 15.46,-17.04 5.04,7.59 14.44,9.99 22.23,13.77 18.17,6.61 34.29,17.54 52.14,24.88 20.29,10.36 41.41,18.99 61.73,29.29 8.52,4.42 17.59,7.59 26.27,11.67 12.74,5.71 24.59,13.19 37.4,18.75 16.06,8.35 31.76,17.42 48.47,24.46 16.68,9.71 34.23,17.94 50.42,28.5 13.51,9.17 27.76,17.27 40.59,27.42 7.58,6.01 17.19,10.12 22.77,18.29 1.41,3.6 -3.01,4.62 -5.6,4.93 0.51,3 -0.82,6.84 1.12,9.57 10.13,8.26 22.81,12.18 33.7,19.22 22.59,11.79 44.09,25.53 66.64,37.4 9.73,4.09 20.11,6.6 29.56,11.44 12.82,6.55 26.54,11.34 38.76,19.06 -1.38,4.28 -2.65,8.6 -3.98,12.9 1.4,1.36 2.81,2.73 4.21,4.12 -1.51,0.41 -4.53,1.23 -6.04,1.65 -2.35,13.3 -1.95,26.83 -2.64,40.26 -1.76,16.14 -2.09,32.61 -6.24,48.38 -1.36,-0.23 -2.7,-0.45 -4.03,-0.67 0.21,-6.02 0.81,-12 1.18,-18 -3.1,7.54 -3.72,15.79 -3.72,23.86 -1.89,5.56 -7.67,8.68 -10.66,13.62 -12.77,17.95 -24.88,36.37 -37.67,54.31 -16.93,26.48 -38.47,49.5 -58.12,73.9 -12.85,15.22 -25.91,30.31 -37.7,46.39 -1.96,2.39 -2.68,5.44 -3.61,8.33 -8.08,1.31 -13.75,10.36 -22.57,7.52 -12.63,-6.35 -27.11,-6.83 -39.75,-12.99 -13.46,-5.91 -27.96,-9.19 -41.06,-15.92 -6.85,-3.19 -13.71,-6.39 -20.72,-9.2 -21.86,-6.83 -42.2,-17.72 -64.12,-24.38 -0.12,2.08 -0.24,4.18 -0.39,6.27 -28.44,-8.04 -54.62,-21.92 -82.13,-32.46 -11.1,-4.25 -21.14,-11.37 -33.05,-13.25 -10.08,-5.54 -19.64,-12.1 -30.5,-16.15 -10.01,-5.46 -21.54,-6.81 -31.66,-11.95 -25.69,-8.76 -49.59,-21.77 -74.07,-33.32 -10.25,-4.7 -21.58,-7.88 -29.6,-16.32 -6.18,-6.66 -14.66,-10.25 -22.43,-14.64 -15.39,-8.5 -31,-16.59 -46.82,-24.24 -6.3,-2.85 -11.2,-7.87 -17.32,-11.01 -1.16,1.83 -2.35,3.65 -3.56,5.46 -0.3,-2.1 -0.5,-4.2 -0.67,-6.31 -3.84,0.56 -7.67,1.19 -11.52,1.65 1.67,-5.68 5.78,-10.91 4.43,-17.13 4.61,-1.02 8.41,1.68 11.61,4.64 0.08,-2.69 0.44,-5.36 0.76,-8.03 -0.62,-0.62 -1.23,-1.25 -1.85,-1.86 -1.07,0.45 -2.14,0.92 -3.22,1.38 2.76,-6.76 4.96,-13.98 3.87,-21.37 -1.32,-1.92 -3.61,-2.76 -5.5,-3.98 0.56,-1.76 1.17,-3.5 1.76,-5.25 -1.32,-0.44 -2.63,-0.88 -3.94,-1.3 0.63,3.88 -0.1,8.59 2.8,11.77 -1.05,1.75 -1.24,3.78 -1.16,5.78 0.67,-0.94 2.01,-2.82 2.68,-3.76 2.34,5.68 1.94,11.69 -1.97,16.62 -2.01,-0.31 -4.08,-0.91 -6.11,-0.4 -1.98,4.31 -2.41,9.71 -7.27,12.03 -0.41,-4.66 0.5,-9.28 1.24,-13.85 1.17,-6.73 -1.06,-13.45 -1.59,-20.14 -0.96,-16.42 -0.1,-33.3 5.45,-48.91 1.46,-5.55 0.02,-11.33 -0.07,-16.93 -0.81,-9.19 -0.3,-18.43 -1.09,-27.61 3.7,0.87 7.38,1.82 11.13,2.42 2.04,-1.2 3.4,-3.23 5.01,-4.91 13.42,-16.04 25.99,-32.77 38.1,-49.82 15.71,-22.64 35.01,-42.43 51.99,-64.07 21.41,-27.22 42.42,-54.76 64.71,-81.26 8.93,-11.36 17.24,-23.28 27.53,-33.48 m 11.93,-6 c -16.42,14.05 -28.47,32.21 -42.22,48.7 -20.53,24.6 -39.98,50.07 -59.55,75.42 -19.51,23.89 -40.69,46.52 -57.83,72.25 -10.78,15.98 -23.14,30.79 -35.52,45.52 0.88,4.15 6.36,5.52 9.4,8.2 -0.4,-2.56 -0.82,-5.16 -1.15,-7.72 9.52,-7.96 16.97,-17.97 24.96,-27.37 10.59,-12.68 22.8,-23.91 33.19,-36.76 21.87,-28.53 43.92,-57.18 69.92,-82.12 17.8,-19.61 33.4,-41.05 49.26,-62.22 4.87,-7.33 9.28,-14.97 14.53,-22.04 1,-1.45 2.58,-3.37 4.6,-2.74 6.81,1.29 13.7,3.21 19.48,7.21 9.55,6.05 20.06,10.41 29.44,16.76 15.19,10.92 31.38,20.57 48.31,28.59 15.24,7.86 32.81,9.78 47.82,18.21 19.23,11.12 40.39,18.19 60.55,27.33 16.87,5.56 32.22,14.6 47.4,23.67 27.03,16.08 50.53,37.24 76.96,54.21 -0.28,-1.86 0.08,-4.18 -1.67,-5.41 -6.47,-5.61 -13.51,-10.5 -19.87,-16.23 -5.77,-5.2 -9.69,-12.39 -16.33,-16.63 -11.42,-7.6 -23.47,-14.19 -35.71,-20.37 -8.84,-4.95 -17.36,-10.59 -26.86,-14.26 -11.72,-4.66 -22.42,-11.33 -33.48,-17.28 -22.31,-10.67 -43.71,-23.28 -66.79,-32.29 -33.78,-16.09 -67.9,-31.54 -101.13,-48.75 -10.8,-4.63 -21.48,-9.5 -32.06,-14.6 -0.73,2.53 -1.33,5.09 -1.88,7.66 -0.33,-2.03 -0.57,-4.07 -0.75,-6.12 -1.01,-0.28 -2.02,-0.56 -3.02,-0.82 m -3.2,29.75 c -19.77,28.67 -40.56,57.02 -65.58,81.39 -21.51,23.36 -41.38,48.19 -60.37,73.62 -14.47,15.53 -29.22,30.82 -42.2,47.65 12.41,6.7 25.06,12.97 37.17,20.23 6.46,3.62 12.59,7.94 19.49,10.73 21.03,9.48 40.31,22.27 60.46,33.4 13.42,7.32 25.38,17.03 38.99,24.01 20.38,11.19 40.81,22.3 61.91,32.09 26.76,12.57 51.74,28.49 77.98,42.05 12.07,6.71 24.12,13.46 36.47,19.66 2.71,-4.75 5.71,-9.32 8.66,-13.91 -9.27,-3.37 -18.82,-5.84 -28.2,-8.88 0.64,-2.16 1.31,-4.3 2.01,-6.43 -6.62,-1.64 -13.41,-2.32 -20.1,-3.55 -6.69,-1.65 -12.48,-5.52 -18.55,-8.57 -5.6,-1.29 -9.05,-6.14 -13.91,-8.74 -8.03,-4.81 -16.52,-9.19 -22.99,-16.12 -3.04,-3.55 -8.39,-2.79 -12.45,-4.04 -11.36,-1.45 -20.6,-8.94 -31.28,-12.43 3.6,-8.77 9.54,-17.82 18.17,-22.26 4.25,4.84 6.95,10.74 10.59,16.02 -0.43,1.07 -0.85,2.14 -1.27,3.21 -4.34,-3.63 -8.98,-6.88 -13.42,-10.38 -3.05,3.33 -6,6.75 -8.8,10.29 6.03,2.18 11.43,5.68 16.98,8.85 3.89,-4.67 8.75,-8.64 14.47,-10.82 3.71,-1.93 8.86,-3.02 11.58,1.1 4.46,4.8 -1.88,9.97 -4.42,13.77 3.75,2.16 6.21,5.73 8.77,9.1 3.55,-6.77 10.08,-10.78 16.86,-13.7 -7.15,-16.96 -11.93,-34.79 -15.31,-52.85 -0.16,-1.93 0.39,-3.82 0.77,-5.69 1.55,0.06 3.11,0.12 4.66,0.19 2.77,9.04 2.13,18.66 5.15,27.66 3.37,11.48 5.63,23.96 13.46,33.45 -2.86,6.82 -4.47,15.06 -11.46,18.95 2.86,1.72 5.79,3.33 8.67,5.03 7.42,-4.83 13.66,-14.55 23.47,-13.75 -2.56,7.89 -7.35,14.64 -11.82,21.52 3.14,1.39 6.33,2.69 9.52,3.97 3.36,-6.18 7.56,-12.42 13.81,-15.95 2.53,-1.71 5.22,1.23 5.59,3.69 1.82,6.43 -3.08,11.47 -6.34,16.37 4.14,0.37 8.29,1.4 12.46,1.11 4.43,-2.97 7.98,-7.15 12.48,-10.03 4.5,-0.34 5.06,5.92 5.31,9.3 -0.49,4.39 2.06,8.42 7.08,8.35 1.44,-4.11 2.9,-8.21 4.4,-12.3 -5.8,-3.52 -11.62,-7.03 -17.62,-10.21 1.18,-1.46 2.25,-3.46 4.36,-3.62 9.29,-1.59 19.2,-2.88 28.26,0.48 0.56,-1.23 1.13,-2.46 1.71,-3.68 -7.59,-3.53 -15.51,-7.88 -19.94,-15.24 7.24,-3.92 16.11,-0.47 23.99,-1.5 7.5,0.59 11.14,-7.07 15.39,-11.86 -3.47,2.07 -6.82,4.31 -10.33,6.3 0.13,-1.45 0.27,-2.89 0.43,-4.32 -2.43,-3.7 -8.83,-7.7 -6.52,-13.01 7.85,-3.46 16.97,-2.24 25,-5.14 3.73,-2.57 5.72,-6.94 8.29,-10.58 -7.11,-2.23 -14.41,-1.45 -21.65,-0.83 1.99,-4.44 4.8,-8.43 7.17,-12.65 2.36,-4.44 0.82,-9.56 0.71,-14.33 0.96,-0.43 1.93,-0.85 2.91,-1.26 4.36,6.11 8.7,12.26 14.2,17.43 4.69,-3.04 7.73,-7.74 10.8,-12.29 -5.25,0.39 -10.49,0.78 -15.75,0.89 3.85,-10.19 10.2,-19.7 9.65,-31.04 8.66,3.43 17.95,4.02 27.06,5.14 4.71,-5.35 9.58,-10.55 14.18,-15.99 -7,-1.46 -14.36,-2.32 -21.37,-0.46 0.23,-1.42 0.69,-4.26 0.93,-5.68 7.07,-3.18 14.69,-5.48 21.04,-10.06 2.63,-1.71 5.82,-2.16 8.61,-3.57 0.96,-1.68 1.53,-3.53 2.22,-5.33 -6.71,-3.22 -13.8,-5.52 -20.77,-8.05 8.23,-4.9 18.35,-4.9 27.29,-8.13 0.46,4.62 0.54,9.26 0.64,13.9 4.26,-4.22 6.74,-9.79 8.59,-15.4 -6.04,-1.07 -12.06,-2.2 -18.11,-3.17 -0.18,1.18 -0.35,2.37 -0.52,3.55 -3.81,-6.81 2.54,-12.96 7.88,-16.45 -5.27,-1.17 -9.82,-4.03 -14.53,-6.5 -7.91,-5.72 -17.63,-1.59 -26.55,-2.15 0.78,-4.94 1.36,-10.31 4.77,-14.24 2.46,-0.08 4.86,0.53 7.27,0.97 -2.07,-3.42 -4.31,-6.75 -6.49,-10.08 -3.96,1.37 -8.26,1.78 -12.06,3.59 -0.73,2.59 -0.55,5.36 -1.45,7.91 -6.7,3.22 -12.92,-3.04 -18.43,-5.94 4.38,-3.84 10.07,-5.34 15.31,-7.59 -1.88,-0.78 -3.77,-1.56 -5.66,-2.29 -0.22,-1.15 -0.4,-2.3 -0.59,-3.44 -10.77,-1.59 -21.07,-7.78 -32.19,-4.48 -2.88,-3.92 -4.46,-8.54 -6.61,-12.83 -3.86,-2.92 -10.47,-0.82 -11.97,-6.68 1.05,-0.82 2.12,-1.62 3.18,-2.42 1.97,1.3 3.76,4.3 6.46,3.18 4.16,-1.2 8.1,-3.06 12.11,-4.67 -16.48,-8.81 -34.08,-15.12 -51.13,-22.69 -4.94,-1.78 -9.62,-4.94 -15.03,-5 0.2,-0.7 0.41,-1.4 0.63,-2.09 -1.76,0.71 -3.51,1.69 -5.46,1.65 -5.2,-2.16 -8.33,-7.38 -13.27,-9.97 -2.74,-1.43 -5.69,-2.37 -8.66,-3.14 3.65,3.66 8.03,6.41 12.38,9.16 4.16,2.79 6.16,7.57 7.53,12.19 -2.78,-0.53 -5.44,-1.47 -8.03,-2.57 0.27,-1.88 0.54,-3.75 0.8,-5.62 -1.73,-0.08 -3.47,-0.19 -5.2,-0.29 1.48,1.06 2.96,2.11 4.43,3.2 -5.56,1.29 -6.7,-5.92 -11.36,-7.48 -2.31,3.73 -5.7,6.55 -10.51,5.89 0.76,7.56 -1.26,14.97 -4.01,21.96 -1.73,-1.79 -3.56,-3.46 -5.47,-5.05 0,2.62 1.4,5.89 -0.97,7.91 -2.45,2.56 -4.67,5.35 -6.19,8.57 13.05,-11.26 29.83,-16.57 46.46,-19.86 11.2,-1.58 22.7,-4.49 33.96,-1.66 1.66,9.52 4.49,18.83 5.44,28.46 1.32,13.35 -0.89,26.79 -5.12,39.44 5.88,-6.58 8.94,-15.03 13.28,-22.59 4.53,2.61 3.96,8.23 3.69,12.67 10.16,-2.41 20.37,-4.68 30.28,-7.99 2.64,-0.84 5.43,-0.95 8.18,-0.92 -2.14,4.67 -6.48,7.57 -10.34,10.69 0.11,-1.52 0.22,-3.03 0.34,-4.54 -3.49,1.67 -6.93,3.43 -10.36,5.23 -0.05,-0.69 -0.16,-2.07 -0.21,-2.76 -3.41,1.59 -6.58,3.62 -9.64,5.8 -1.69,-0.86 -3.38,-1.69 -5.08,-2.47 0.01,1.17 0.03,2.34 0.05,3.51 -1.55,-0.15 -3.09,-0.35 -4.63,-0.56 -0.51,4.77 -1.71,9.59 -1.03,14.42 1.38,9.8 0.58,19.77 -0.94,29.52 7.25,2.34 16.24,3.29 21.04,9.87 -3.39,1.96 -6.71,4 -10.14,5.86 1.32,-2.13 2.71,-4.23 4.12,-6.3 -5,-2.1 -10.4,-3.07 -15.82,-2.86 -0.02,-0.39 -0.07,-1.16 -0.1,-1.54 -8.15,14.14 -17.33,28.13 -31.19,37.31 5.65,9.71 15.18,20.94 9.95,32.84 -3.27,-10.27 -7.44,-20.32 -13.99,-28.97 -2.74,1.49 -5.47,2.99 -8.2,4.49 1.76,10.32 8.14,18.87 13.36,27.64 9.48,15.27 20.41,29.72 28.49,45.82 -1.77,0.45 -3.53,0.91 -5.29,1.36 -8.45,-14.48 -17.42,-28.66 -26.85,-42.51 -5.68,-8.8 -10.22,-18.28 -16.23,-26.86 -6.2,4.15 -12.46,8.51 -19.87,10.12 -1.15,11.06 2.5,22.04 1.1,33.14 -6.27,-9.54 -5.06,-21.65 -8.43,-32.23 -14.12,4.02 -28.69,3.81 -43.22,3.84 -0.08,-1.26 -0.15,-2.52 -0.22,-3.76 -2.56,0.66 -5.47,1.14 -6.52,4.13 -10.83,14.8 -24.68,27.44 -32.73,44.16 -1.6,3.85 -4.4,7.02 -8.02,9.08 -0.35,-5.27 -4.43,-8.07 -9.15,-7.7 -10.05,0.5 -17.79,-6.92 -25.61,-12.08 -0.59,-4.01 0.56,-9.34 -2.78,-12.24 -3.83,-3.02 -7.17,1.52 -10.04,3.63 -8.58,-3.22 -16.01,-8.79 -23.32,-14.18 -3.22,-2.84 -0.88,-7.45 -0.55,-10.98 -2.36,1.27 -4.69,2.6 -7.02,3.92 -9.1,-5.29 -18.57,-10.8 -29.14,-12.36 0.11,-4.2 1.04,-8.32 2.18,-12.34 -2.01,2.29 -3.64,5.05 -6.09,6.88 -11.96,-0.92 -20.55,-10.85 -31.69,-14.07 0.77,-3.96 2.43,-7.62 3.59,-11.45 -2.85,0.77 -5.35,2.68 -8.33,2.96 -8.66,-0.45 -16.49,-4.67 -24.89,-6.34 3.3,-9.39 9.81,-17.16 15.31,-25.31 0.96,-2.09 3.69,-2.02 5.13,-0.48 1.06,2.87 0.46,6.01 0.43,8.99 5.13,-2.48 10.18,-5.1 15.09,-7.99 -1.75,-3.39 -4.95,-6.47 -3.93,-10.71 0.6,-5.84 6.46,-9.15 8.54,-14.29 1.22,-4.34 -2.51,-10.67 2.9,-12.96 6.86,-2.67 13.48,-7.05 17.3,-13.49 4.95,-12.06 16.38,-19.23 24.42,-28.97 3.84,-3.68 6.08,-8.6 9.55,-12.56 5.18,-4.16 11.95,-3.51 18.14,-4.09 -1.45,-5.01 -8.88,-9.95 -4.55,-15.22 5.89,-6.99 14.22,-11.25 21.62,-16.37 0.1,-4.29 -0.99,-9.07 0.96,-13.03 4.58,-3.4 10.61,-5.43 12.82,-11.26 7.07,-13.5 13.92,-27.83 25.99,-37.68 -7.28,-1.7 -9.58,7.38 -13.15,11.58 m 18.62,-8.51 c -8.05,1.35 -12.94,8.79 -12.98,16.5 0.87,-1.03 1.74,-2.07 2.61,-3.11 2.11,4.86 5.32,11.41 0.23,15.51 -4.35,7.31 -15.02,2.57 -20,9.31 2.4,-0.46 4.78,-1.01 7.16,-1.57 0.04,5.4 -0.29,10.9 -2.33,15.98 -1.3,2.55 -1.7,8.37 -5.85,8.03 -2.89,-0.58 -5.57,-1.93 -8.3,-2.99 -4.3,5.13 -9.89,8.9 -15.29,12.74 3.25,-1.37 6.48,-2.79 9.74,-4.15 0.62,2.42 1.25,4.83 1.87,7.24 0.46,-1.08 0.93,-2.15 1.4,-3.23 1.82,5.83 2.4,12.9 -1.06,18.23 -7.41,0.47 -13.31,-4.18 -19.57,-7.27 2.26,3.81 2.57,8.45 4.76,12.23 5.9,5.77 14.63,6.79 22.09,9.53 -0.83,0.28 -2.49,0.84 -3.32,1.13 12.87,5.18 24.75,12.43 35.98,20.53 14.43,-12.38 29.35,-24.22 43.14,-37.37 -2.89,-1.95 -5.83,-4.01 -7.73,-7 -3.7,-6.03 -8.63,-12.18 -8.56,-19.64 4.49,2.16 8.71,6.03 9.57,11.13 1.19,5.75 5.19,10.22 8.38,14.95 3.62,-2.28 7.33,-4.41 11.07,-6.49 -2.56,-5.66 -4.88,-11.45 -6.18,-17.53 -0.29,0.53 -0.57,1.07 -0.85,1.61 -0.22,-7.26 -5.87,-12.66 -6.9,-19.68 -1.68,-7.34 -1.94,-14.88 -2.45,-22.35 -5.14,-1.86 -10.22,-3.91 -15.34,-5.83 1.99,2.63 3.84,5.36 5.56,8.18 -5.35,2.33 -11.3,2.95 -16.95,1.24 -5.48,-4.17 -9.4,-10.19 -15.46,-13.65 l -0.16,-2.8 c 3.81,-1.09 7.59,-2.29 11.41,-3.4 -1.17,-2.64 -1.63,-7.97 -5.69,-6.01 m 10.13,1.25 c 1.84,3.17 4.01,6.29 7.41,7.96 8.32,5.04 17.86,8.28 27.56,9.12 -6.4,-6.33 -14.87,-9.95 -22.83,-13.85 -3.8,-1.89 -8.02,-2.45 -12.14,-3.23 m 52.53,8.75 c -0.87,1.23 1.23,2.52 2.04,1.32 0.81,-1.2 -1.26,-2.47 -2.04,-1.32 m -61.65,1.04 c 2.39,2.7 4.98,5.19 7.59,7.69 -0.34,-4.37 -3.09,-7.45 -7.59,-7.69 m 11.77,2.55 c 0.21,3.09 0.37,6.15 0.64,9.24 2.56,0.02 5.12,-0.12 7.67,-0.36 -2.61,-3.11 -5.29,-6.17 -8.31,-8.88 m -36.94,16.2 c 2.77,-1.47 6.01,-2.37 8.34,-4.58 0.63,-3.4 0.69,-6.87 0.38,-10.31 -3.58,4.51 -6.95,9.35 -8.72,14.89 m 66.68,-4.94 c 0.3,5 0.47,10.04 1.25,15 0.61,-4.15 1.06,-8.32 1.42,-12.49 3.16,0.52 6.36,1.09 9.52,1.71 -0.46,-1.29 -0.94,-2.58 -1.4,-3.87 -3.59,-0.32 -7.19,-0.39 -10.79,-0.35 m 17.17,2.84 c 4.3,7.01 12.68,9.29 20.03,11.74 -6.33,-4.47 -13.21,-8.1 -20.03,-11.74 m -10.43,6.35 c -0.95,3.03 -1.21,6.23 -1.75,9.35 4.85,0.72 9.71,1.47 14.58,2.06 0.31,-6.87 -5.97,-13.32 -12.83,-11.41 m 13.9,10.54 c 1.66,0.32 3.32,0.59 4.99,0.87 -1.42,1.47 -2.48,3.94 -4.81,4 -5.9,-0.11 -11.54,-1.96 -17.3,-3.02 3.44,10.87 9.67,21.12 9.05,32.9 9.58,-2.76 20.07,-8.66 30.12,-4.99 -0.81,-5.9 -2.44,-11.84 -6.64,-16.27 0.54,-3.37 2.32,-6.65 2.15,-10.13 -1.32,-4.06 -5.67,-5.54 -9.36,-6.6 -3.19,-1.21 -5.64,1.9 -8.2,3.24 m -103.11,8.87 c 2.69,1.2 5.41,2.37 8.16,3.43 0.91,-4.93 1.89,-9.87 2.11,-14.89 -4.92,2.22 -7.49,7.11 -10.27,11.46 m 123.8,1.39 c 2.2,2.83 5.05,5.03 8.38,6.39 0.09,-3.16 0.07,-6.34 0.13,-9.49 -1.05,-0.86 -2.07,-1.75 -3.06,-2.66 -1.82,1.91 -3.62,3.85 -5.45,5.76 m 40.84,1.96 c 4.18,3.16 9.18,4.95 14.11,6.59 -4.36,-2.84 -9.07,-5.22 -14.11,-6.59 m -183.87,21.24 c 3.85,3.04 8.14,5.5 12.84,6.98 1.09,-4.53 -1.28,-8.43 -4.22,-11.61 -2.87,1.55 -5.75,3.09 -8.62,4.63 m 144.39,-3.7 c -1.98,1.8 -3.66,3.91 -4.84,6.3 2.62,-1.56 4.31,-4.14 5.47,-6.91 l -0.63,0.61 m 79.83,1.51 c -0.78,1.41 1.64,2.62 2.51,1.39 0.73,-1.38 -1.67,-2.59 -2.51,-1.39 m -136.73,28.55 c -9.83,10.25 -23.83,16.33 -30.99,29.07 -1.64,2.14 0.27,4.39 1.15,6.39 8.6,-17.4 23.97,-30.33 40.67,-39.63 10.79,-4.95 21.85,-9.33 32.43,-14.75 2.23,-1.75 2.99,-4.69 4.26,-7.12 -18.72,1.81 -34.83,12.78 -47.52,26.04 m 117.79,-25.96 c 1.34,3.13 2.64,6.29 4.13,9.36 -0.3,-2.65 -0.73,-5.32 -1.01,-7.95 -1.05,-0.47 -2.09,-0.94 -3.12,-1.41 m -34.79,6.12 c -9.49,2.18 -18.41,6.3 -26.82,11.14 -6.06,4.24 -11.58,9.33 -18.19,12.76 -0.62,-1.29 -1.25,-2.57 -1.86,-3.85 2.01,-4.6 3.81,-9.3 5.26,-14.1 -6.93,3.5 -13.92,6.89 -21.05,9.97 1.41,4.95 1.74,10.19 -1.26,14.6 0.54,-3.67 0.06,-7.35 -1.88,-10.55 -5.25,3.07 -11.1,5.24 -15.52,9.59 -7.27,7.07 -14.25,14.49 -20.22,22.71 -4.83,7.22 -11.11,13.81 -13.74,22.26 14.16,-5.65 23.26,-18.5 35.77,-26.61 -11.18,12.1 -23.6,23.48 -38.11,31.4 -2.61,9.21 -1.53,19.05 -0.09,28.36 1.63,8.56 7.28,15.43 10.01,23.57 0,-0.53 0.01,-1.6 0.01,-2.13 6.06,2.57 14.31,2.7 16.85,9.89 0.14,-8.22 5.83,-14.69 8.16,-22.27 -4.05,3 -7.59,6.73 -11.9,9.34 -3.63,2.11 -7.12,-1.74 -6.92,-5.34 -0.28,-11.21 4.13,-22.18 9.78,-31.69 3.81,-6.85 11.1,-11.2 13.72,-18.79 -1.47,0.42 -2.93,0.86 -4.39,1.3 1.19,-1.68 2.4,-3.33 3.63,-4.96 0.33,1.45 0.67,2.91 1.02,4.38 2.59,-3.42 5.22,-6.82 7.8,-10.25 -2.7,1.95 -5.33,4 -8.07,5.89 2.32,-3.38 5.08,-6.69 8.94,-8.31 7.01,-2.7 12.25,-8.89 19.92,-10.09 -0.12,3.96 -0.25,7.92 -0.42,11.89 11.3,-6.02 22.96,-11.43 34.96,-15.89 5.98,-2.58 13.41,-3.53 17.5,-9.05 4.85,2.29 9.9,4.1 14.8,6.26 -2.09,1.14 -4.22,2.2 -6.38,3.2 0.84,7.93 1.95,15.94 1.2,23.92 -1.44,7.92 -4.21,15.52 -6.54,23.2 4.07,-2.46 8.15,-4.92 12.39,-7.1 0.17,0.78 0.52,2.35 0.69,3.13 -7.95,9.07 -12.4,20.65 -20.42,29.69 -5.59,6.11 -11.84,11.6 -18.44,16.59 -7.83,6.14 -14.96,13.27 -23.6,18.29 -7.44,3.11 -15.78,2.88 -23.55,4.63 -2.4,0.59 -3.82,2.81 -5.48,4.45 4.19,-0.09 8.38,-0.3 12.57,0.01 4.76,-0.71 7.4,4.45 11.89,4.42 6.54,-0.4 12.99,-1.67 19.35,-3.24 2.35,-0.44 3.81,-2.46 5.35,-4.08 8,2.11 15.35,-3.03 21.46,-7.49 9.33,-6.89 20.15,-11.49 29.15,-18.88 9.38,-6.97 15.51,-17.33 20.02,-27.91 -3.01,-0.65 -6.07,-1.34 -9.07,-1.99 0.24,-1.34 0.48,-2.67 0.7,-4.01 2.99,-0.23 6.45,1.02 9.31,-0.19 2.58,-2.89 2.75,-7.14 3.84,-10.72 -4.03,1.54 -8.28,3.14 -11.44,6.17 -2.95,4.32 -5.28,9.02 -7.83,13.58 -1.09,-0.47 -2.18,-0.95 -3.26,-1.43 7.45,-15.49 17.16,-29.99 21.66,-46.78 -8.18,5.52 -15.82,12.93 -25.97,14.34 2.31,-6.56 8.37,-10.98 10.33,-17.67 2.09,-9.38 2.12,-19.05 2.17,-28.62 0.64,-11.25 -4.14,-21.82 -8.55,-31.88 -9.73,1.75 -19.52,3.18 -29.24,4.94 m 61.69,-5.02 c 4.09,3.11 8.85,5.14 13.63,6.94 -4.28,-2.8 -8.86,-5.1 -13.63,-6.94 m 21.9,9.16 c 5.83,3.76 11.47,7.91 17.85,10.73 2.59,1.04 4.26,3.33 6.17,5.25 -0.04,-0.61 -0.12,-1.82 -0.16,-2.42 18.26,12.33 37.96,22.35 56.14,34.83 7.98,3.87 14.34,10.48 22.73,13.56 -20.58,-16.66 -41.99,-32.47 -65.36,-45.05 -11.5,-7.55 -24.24,-12.91 -37.37,-16.9 m -259.44,5.9 c 1.48,4.21 3.09,9.63 -0.83,13.09 -4.53,6.3 -13.38,3.68 -18.84,0.02 -4.05,3.78 -8.14,7.55 -11.65,11.87 5.91,6.09 15.13,6.17 23,7.36 -0.55,1.12 -1.09,2.23 -1.63,3.36 11.9,5.09 23.98,10 34.69,17.38 4.18,2.97 9.04,4.8 13.19,7.79 2.72,2.05 1.06,5.73 0.87,8.6 -2.73,-2.02 -5.33,-4.21 -8.25,-5.95 -8.13,-3.99 -14.22,-11.18 -22.74,-14.56 -10.55,-4.52 -20.71,-10.11 -31.73,-13.46 0.55,2.99 1.17,5.96 1.88,8.92 -6.96,1.84 -13.97,0.24 -20.88,-0.76 -5.54,2.39 -9.78,7.07 -14.42,10.83 1.08,0.86 2.16,1.73 3.24,2.6 2.43,-2.22 4.86,-4.43 7.31,-6.62 3.2,3.61 5.41,8 5.73,12.87 -3.37,0.79 -6.79,1.35 -10.19,1.98 1.34,2.16 2.67,4.33 4.03,6.48 -3.07,1.52 -5.93,3.48 -9.07,4.87 -3.23,-0.69 -5.25,-3.91 -7.88,-5.69 2.04,3.49 4.83,6.71 5.89,10.68 -3.46,6.73 -11.65,3.18 -17.55,2.81 2.44,3.01 5.32,5.6 8.32,8.05 0.09,0.51 0.28,1.51 0.37,2.01 -2.39,1.07 -4.77,2.15 -7.15,3.23 4.16,6.25 -0.58,13.01 -2.91,18.96 1.32,0.7 2.64,1.42 3.95,2.14 2.1,-4.76 4.05,-9.58 6.16,-14.33 2.63,1.37 5.45,2.5 7.8,4.34 0.65,2.16 0.59,4.55 0.91,6.8 6.27,1.18 12.55,2.31 18.84,3.37 -0.65,5.77 -2.82,11.19 -4.51,16.71 7.29,0.55 10.46,-8.38 16.88,-9.83 5.66,2.46 8.28,9.42 6.39,15.29 4.94,-1.1 10.01,-1.17 15.02,-1.74 1.85,5.82 -1.29,11.35 -2.41,16.95 2.64,-2.23 4.93,-4.84 7.52,-7.13 3.19,-2.78 7.5,-3.45 11.44,-4.56 -0.23,1.09 -0.45,2.19 -0.65,3.3 1.25,-0.96 2.46,-1.98 3.65,-3 -1.9,8.65 -6.58,21.24 -18.11,17.36 -0.55,1.72 -1.17,3.42 -1.86,5.09 6.56,4.32 12.79,9.15 19.78,12.77 0.25,-0.45 0.76,-1.36 1.02,-1.82 -4.32,-2.38 -11.52,-6.13 -8.51,-12.24 3.32,-1.58 6.9,-2.71 10.5,-3.47 4.48,-0.76 8.28,2.6 12.23,4.06 -1.53,3.98 -3.78,7.61 -6.15,11.14 2.23,0.64 4.45,1.64 6.82,1.6 8.34,-6.94 12.94,-17.16 19.16,-25.82 6.91,-10.06 13.28,-21.67 25.03,-26.8 -7.57,-1.35 -15.21,-4.37 -19.72,-10.95 -8.89,0.76 -16.46,5.78 -24.13,9.87 -5.01,2.23 -6.83,8.28 -12.37,9.7 0.3,-2.44 -0.29,-5.51 1.7,-7.36 8.75,-7.01 19.27,-11.18 29.06,-16.47 -8.62,-0.72 -17,2.31 -25.29,4.21 -15.66,3.81 -31.55,7.8 -47.8,7.33 0.29,-1.71 0.53,-3.44 1.11,-5.08 8.05,-0.8 16.27,0.58 24.2,-1.78 16.28,-2.46 31.85,-8.65 48.24,-10.29 -2.37,-6.94 -4.38,-14.01 -6.37,-21.06 -9.65,-1.56 -18.94,2.12 -28.29,3.83 4.86,-8.95 17.65,-7.42 26.2,-9.3 -0.25,-13.61 6.11,-25.44 12.72,-36.75 -10.73,-1.47 -21.5,-2.44 -32.27,-3.48 -0.69,-7.12 7.75,-6.52 12.58,-7.45 -1.46,1.34 -2.95,2.64 -4.43,3.95 8.17,0.37 16.25,1.77 24.38,2.52 2.33,0.41 3.78,-1.69 5.35,-3.01 -8.48,-6.84 -17.12,-13.84 -27.41,-17.78 -10.67,-5.34 -22.59,-8.83 -31.16,-17.55 m 263.35,0.92 c 0.29,4.26 1.19,8.5 3.02,12.4 5.89,5.44 14.58,5.32 21.92,7.24 6.54,-0.93 6.68,6.1 7.47,10.48 4.16,-1.28 8.26,-2.76 12.3,-4.41 -14.66,-8.98 -29.16,-18.33 -44.71,-25.71 m -12.13,1.14 c 3.11,2.6 6.53,4.74 9.92,6.99 -1.72,-4.35 -5.32,-6.99 -9.92,-6.99 m -265.78,5.2 c -0.19,2.04 0.07,4.08 0.18,6.13 3.05,-0.11 7.66,1.15 9.61,-2.23 2.32,-2.57 0.51,-5.98 -0.06,-8.83 -3.34,1.37 -7.15,2.23 -9.73,4.93 m 266.66,4.08 c 2,2.02 4.27,3.78 6.81,5.07 -1.7,-1.26 -5.11,-3.8 -6.81,-5.07 m -157.78,4.79 c -12.69,8.4 -23.63,19.9 -29.22,34.23 8.65,-12.31 18.01,-24.1 29.22,-34.23 m 216.32,11.82 c 5.9,6.5 9.9,14.39 14.57,21.75 5.99,5 13.78,7.05 20.95,9.77 5.47,2.02 11.86,1.78 16.57,5.57 3.69,3.38 1.49,8.47 -0.36,12.23 -3.72,6.88 -6.96,14.07 -11.77,20.29 -2.05,1.86 -5.01,1.96 -7.58,2.61 -2.3,5.63 -4.17,11.47 -6.84,16.95 -6.93,12.32 -18.24,21.38 -25.67,33.36 -3.38,4.8 -5.6,10.93 -10.86,14.13 -6.95,4.53 -11.09,12.03 -14.63,19.31 -4.33,10.12 -11.95,18.27 -17.14,27.9 -4.66,8.88 -12.23,15.7 -17.15,24.38 5.17,-4.38 8.87,-10.16 12.95,-15.5 20.85,-30.46 44.36,-58.95 67.02,-88.04 14.98,-22.64 34.81,-41.35 53.38,-60.94 -26.28,-11.43 -48.47,-30.05 -73.44,-43.77 m -346.68,0.79 c -3.03,3.5 -6.09,6.96 -9.03,10.53 4.11,-2.58 7.93,-5.6 11.65,-8.71 -0.65,-0.45 -1.96,-1.36 -2.62,-1.82 m 192.59,11.7 c -12.46,5.45 -25.69,9.83 -36.09,18.95 -9.34,8.12 -18.15,16.95 -25.6,26.85 11.06,-7.11 18.72,-19.4 31.34,-23.91 -7.05,12.54 -18.1,22.13 -26.28,33.89 10.62,-8.64 21.43,-17.23 33.39,-23.94 -2.91,9.82 -13.71,13.19 -21.11,18.88 -6.61,4.21 -10.75,11.12 -14.62,17.74 9.59,-5.98 16.71,-14.95 25.58,-21.78 5.27,-2.41 11.22,-3.08 15.8,-7.08 -1.1,-2.75 -2.17,-5.52 -3.15,-8.32 6.46,-1.05 11.55,-5.43 16.41,-9.52 8.77,-7.95 17.83,-15.65 25.68,-24.55 -7.53,4.07 -14.68,8.77 -21.97,13.23 -10.38,6.29 -19.37,14.69 -30.33,20.05 -0.24,-0.79 -0.71,-2.36 -0.95,-3.15 8.05,-5.23 15.39,-11.42 23.13,-17.06 5.47,-4.83 13.27,-4.71 19.09,-8.91 4.28,-3.06 8.99,-5.98 14.48,-5.67 -8.59,12.23 -21.46,20.37 -30.84,31.82 5.64,-2.39 10.85,-5.66 16.11,-8.77 -6.1,7.61 -15.94,10.72 -23.39,16.77 0.59,9.3 0.54,18.99 -3.68,27.55 -7.6,13.47 -16.48,26.21 -26.63,37.88 6.02,-0.9 12.37,-1.03 18.06,-3.43 10.8,-6.16 19.43,-15.32 29.51,-22.52 11.15,-8.15 18.14,-20.33 25.41,-31.75 -3.63,1.73 -7.24,3.49 -10.89,5.18 0.94,-4.57 3.05,-8.77 4.64,-13.12 5.45,-12.74 6.7,-27.4 1.95,-40.56 -0.55,-1.63 -2.31,-1.38 -3.67,-1.36 -7.63,0.21 -14.48,3.82 -21.38,6.61 m -196.07,-0.02 c 3.9,0.7 7.8,1.46 11.74,1.93 -1.22,-2.47 -2.53,-4.89 -3.74,-7.36 -2.67,1.81 -5.35,3.61 -8,5.43 m 322.91,-3.27 c 2.14,1.44 4.33,2.8 6.56,4.1 0.44,-1.8 0.87,-3.61 1.29,-5.42 -2.63,0.42 -5.24,0.85 -7.85,1.32 m -237.23,31.89 c -0.29,10.38 2.88,20.57 5.94,30.4 0.93,-11.24 -0.1,-22.82 3.75,-33.61 2.2,-7.3 5.52,-14.75 3.99,-22.54 -6.47,7.32 -10.58,16.59 -13.68,25.75 m 76.87,-25.37 c -7.16,3.96 -14.34,8.52 -18.57,15.78 -6.76,10.64 -18.3,18.81 -20.83,31.76 -0.91,7.31 -2.53,14.47 -4.57,21.53 3.96,-2.19 5.68,-6.54 5.66,-10.98 0.6,1.4 1.19,2.8 1.78,4.22 11.83,-11.46 22.52,-24.1 32.68,-37.05 -10.84,8.26 -20.31,18.27 -31.98,25.41 -0.12,-9.38 10.09,-13.72 15,-20.48 -3.37,2.16 -6.66,4.48 -10.39,5.96 7,-11.11 16.5,-20.92 27.58,-28.04 -4.75,7.36 -12.05,12.58 -17.47,19.4 5.77,-4.26 11.39,-8.79 16.67,-13.66 4.02,-3.43 3.61,-9.07 4.44,-13.85 m 33.29,4.42 c -4.5,2.1 -9.11,4.41 -12.2,8.44 4.41,-2.27 8.54,-5.09 12.2,-8.44 m 150.85,2.8 c 2.77,0.16 5.52,-0.03 8.31,-0.14 -2.77,-0.2 -5.56,-0.2 -8.31,0.14 m -351.18,6.29 c -1.42,-0.08 -1.69,2.37 -0.16,2.38 1.41,0.07 1.68,-2.38 0.16,-2.38 m -8.65,1.43 c 1.81,0.95 3.63,1.88 5.47,2.77 -0.39,-1.12 -0.77,-2.24 -1.15,-3.36 -1.44,0.2 -2.88,0.39 -4.32,0.59 m -13.47,-0.21 c 0.73,1.85 1.47,3.7 2.17,5.56 1.41,-1.06 2.82,-2.13 4.23,-3.2 -2.11,-0.86 -4.25,-1.64 -6.4,-2.36 m 291.49,14.28 c 0.92,0.05 2.76,0.17 3.68,0.23 -0.16,-2.18 -0.33,-4.36 -0.49,-6.53 -1.12,2.06 -2.19,4.17 -3.19,6.3 m 113.74,0.74 c 5.72,1.4 11.52,2.44 17.39,3.02 -1.15,-2.95 -2.19,-5.96 -3,-9.01 -1.49,0.96 -3.01,1.88 -4.55,2.75 0.93,-1.26 1.9,-2.5 2.87,-3.73 -4.66,1.4 -9.42,3.19 -12.71,6.97 M 380.1,241.11 c -1.57,0.29 -1.27,3.1 0.45,2.43 1.56,-0.32 1.29,-3.07 -0.45,-2.43 m 243.53,1.01 c 1.15,5.49 7.27,8.84 11.85,4.76 -3.87,-1.78 -7.75,-3.59 -11.85,-4.76 m -459.86,5.43 c -1.74,2.15 -3.51,4.28 -5.3,6.39 3.7,0.22 7.39,0.27 11.1,0.25 -1.81,-2.32 -3.76,-4.53 -5.8,-6.64 m 401.19,62.42 c -24.91,30.63 -48.77,62.15 -71.67,94.32 -13.12,16.65 -25.92,33.69 -35.91,52.44 -4.24,5.04 -5.53,11.5 -6.65,17.79 0.96,1.33 1.89,2.69 2.81,4.06 3.56,0.17 7.16,-0.36 9.86,-2.89 -1.22,-1.83 -2.44,-3.65 -3.62,-5.49 5.92,-4.73 9.49,-11.51 13.89,-17.54 5.67,-8.49 12.39,-16.2 19.35,-23.63 10.83,-12.37 20.29,-25.83 29.88,-39.15 13.91,-16.78 27.14,-34.1 41.27,-50.69 14.45,-21.33 31.71,-40.6 46.31,-61.82 2.02,-2.8 -1.15,-6.21 -1.16,-9.05 4.34,-1.53 8.72,-3.01 12.96,-4.82 -2.07,-3.12 -4.89,-6.54 -3,-10.44 2.88,0.48 5.78,0.95 8.69,1.39 -2.27,-2.7 -5.09,-4.85 -7.75,-7.12 -19.45,19.91 -39.69,39.41 -55.26,62.64 m -209.11,-39.5 c 1.5,0.12 3.01,0.24 4.52,0.39 -3.26,8.07 -9.54,14.38 -14.39,21.48 5.6,-4.67 10.94,-9.68 17.16,-13.53 -0.94,6.39 -6.87,10.08 -11.08,14.24 -6.74,6.53 -14.05,12.44 -20.63,19.13 2.16,0.88 4.6,4.51 6.91,2.24 11.32,-8.63 18.41,-21.31 26.1,-33 4.77,-7.37 7.29,-15.92 7.9,-24.66 -5.8,4.19 -11.29,8.8 -16.49,13.71 m -19.81,11.85 c 10.03,-5.8 18.07,-14.44 25.91,-22.82 -9.38,6.7 -17.48,15 -25.91,22.82 M 562.5,263.2 c 3.12,1.25 6.31,2.34 9.54,3.27 -0.17,-1.46 -0.35,-2.92 -0.52,-4.38 -3.05,0.3 -6.03,0.55 -9.02,1.11 m -235.46,12.44 c 1.87,-1.61 3.38,-3.57 4.52,-5.76 -1.66,1.8 -3.17,3.73 -4.52,5.76 m -42.89,-1.97 c -1.2,0.8 0.08,2.9 1.32,2.04 1.15,-0.79 -0.12,-2.86 -1.32,-2.04 m 347.89,22.67 c 5.05,-6.51 8.33,-14.18 10.85,-21.96 -5.11,6.46 -7.69,14.44 -10.85,21.96 m -301.08,-3.36 c -2.41,1.84 -5.49,1.38 -8.25,0.88 -0.8,3.12 -1.49,6.26 -2.08,9.44 1.21,0.1 2.43,0.22 3.65,0.34 1.11,2.42 2.46,4.72 4.27,6.69 2.93,-3.11 6.04,-6.04 9.19,-8.94 -1.32,-0.55 -2.63,-1.11 -3.94,-1.67 7.11,-7.7 15.53,-14.31 20.56,-23.73 -8.08,5.26 -15.49,11.48 -23.4,16.99 m -203.65,-6.2 c 6.4,3.44 14.61,8.5 21.89,4.47 -2.76,-1.7 -5.8,-2.87 -9.01,-3.35 -0.57,-3.67 -1.35,-7.3 -2.26,-10.9 -4.32,2.29 -7.92,5.7 -10.62,9.78 m 18.63,-4.96 c 0.02,0.97 0.06,2.91 0.08,3.89 4.9,0.58 8.03,-3.38 8.35,-7.91 -2.87,1.22 -5.67,2.58 -8.43,4.02 m 485.39,-2.6 c -1.7,3.26 -3.45,6.49 -5.24,9.7 1.57,-0.11 3.15,-0.2 4.73,-0.28 1.47,-3.23 2.97,-6.43 4.43,-9.66 -1.32,0.08 -2.62,0.16 -3.92,0.24 m 33.97,-0.24 c -0.62,2.84 -1.3,5.67 -1.95,8.51 2.05,-2.35 4.03,-4.75 6.01,-7.16 -1.37,-0.45 -2.71,-0.9 -4.06,-1.35 m -11.54,1.17 c 1.84,1.38 3.72,2.73 5.58,4.09 -3.26,-0.58 -6.59,-0.59 -9.86,-0.12 4.76,0.93 8.81,3.39 11.87,7.17 0.52,-3.63 0.83,-7.29 1.49,-10.9 -3.03,-0.05 -6.06,-0.17 -9.08,-0.24 m -491.44,14.41 c 3.33,-3.83 6.74,-7.8 8.11,-12.8 -3.98,3.33 -6.38,7.99 -8.11,12.8 m 495.98,6.73 c -7.94,13.61 -16.35,26.95 -24.72,40.3 -1.5,2.56 -4.5,3.26 -7.12,4.05 2.84,-10.58 11.06,-18.61 14.69,-28.89 -5.87,5.98 -8.88,14.89 -17.16,18.14 0.61,-3.82 1.56,-7.55 2.6,-11.26 -4.5,5.41 -6.06,14.56 -14.08,16.02 2.31,-10.27 9.27,-18.58 13.32,-28.14 -7.58,7.58 -11.15,20.08 -22.32,23.26 0.44,-8.89 6.75,-15.94 9.59,-24.1 -4.08,4.3 -6.6,9.73 -10.03,14.5 -1.47,2.36 -4.56,1.56 -6.8,2.42 -1.25,1.57 -1.94,3.49 -2.82,5.27 14.89,7.7 31.13,12.31 46.33,19.29 12.15,6.16 25.25,10.03 37.69,15.55 12.35,5.41 23.38,13.31 35.36,19.44 14.7,6.96 27.66,16.9 41.62,25.15 6.15,-8.66 11.93,-17.58 18.07,-26.24 -1.92,-4.91 -1.84,-10.27 -2.21,-15.43 0.24,-7.71 -3.93,-14.43 -7.36,-21.01 0.38,6.43 1.75,12.73 3.22,18.99 -0.96,-0.17 -1.9,-0.33 -2.83,-0.48 1.14,3.84 2.08,7.75 2.51,11.75 -2.62,-2.43 -4.29,-5.74 -4.68,-9.32 -1.45,-6.58 -3.61,-12.98 -7.1,-18.76 0.97,0.68 1.95,1.37 2.93,2.07 -0.31,-5.84 -0.47,-11.7 -0.43,-17.54 2,4.15 2.9,8.66 3.99,13.11 0.22,-2.89 0.72,-5.63 0.94,-8.49 0.44,0.11 1.32,0.31 1.76,0.42 1.88,6.87 5.03,13.29 8.1,19.71 1.02,-2.68 2.08,-5.33 3.22,-7.96 2.1,1.23 4.36,2.26 6.25,3.83 1.07,3.89 1.4,8.02 2.56,11.92 2.88,-3.78 4.86,-8.12 6.65,-12.5 -14.19,-7.04 -26.65,-16.95 -39.97,-25.42 -13.3,-9.58 -27.56,-17.67 -41.04,-26.99 -10.79,-7.48 -22.92,-12.66 -33.87,-19.87 -6.97,18.02 -15.42,35.45 -22.09,53.58 4.74,-4.53 6.83,-11.01 10.14,-16.52 4.61,-7.56 5.52,-17.37 12.93,-23.09 0.68,5.69 -2.17,10.86 -3.87,16.08 -2.57,7.54 -5.91,14.81 -7.94,22.52 8.3,-10.58 13.7,-23.39 23.48,-32.81 1.54,-1.87 4.11,-1.58 6.24,-2.09 -1.57,13.61 -7.12,26.38 -10.73,39.51 3.77,-7.25 6.44,-15.15 11.04,-21.95 2.11,-2.68 6.72,-5.75 9.4,-2.06 1.89,15.7 -5.6,30.72 -4.54,46.4 2.05,-3.12 3.95,-6.34 5.7,-9.63 3.04,-6.31 2.44,-14.34 8.28,-19.15 2.94,0.39 4.07,3.59 5,5.99 3.52,10.64 2.57,22.09 3.29,33.11 0.71,3.51 0.11,7.14 -2.03,10 -2.45,-12.71 -0.66,-25.8 -3.03,-38.51 -0.47,-2.72 -2.2,-4.95 -3.75,-7.14 -5.44,10.22 -3.74,24.83 -15.75,30.67 -3.42,-17.43 6.25,-34.09 4.18,-51.47 -2.95,2.27 -5.76,4.86 -7.37,8.28 -5.31,10.37 -8.71,21.77 -15.88,31.11 -1.29,2.8 -4.34,3.54 -6.98,4.37 1.22,-6.39 5.42,-11.51 7.93,-17.37 2.41,-4.98 3.83,-10.35 5.62,-15.55 2.52,-7.85 5.85,-15.53 6.51,-23.84 -11.41,15.16 -21.94,30.97 -32.93,46.44 -0.89,-0.01 -2.67,-0.04 -3.56,-0.05 3.02,-9.41 8.86,-17.65 11.48,-27.23 -5.83,8.12 -10,17.28 -15.87,25.38 -1.68,2.32 -4.54,3.24 -7.05,4.31 -0.03,-8.39 5.18,-15.31 8.79,-22.49 4.49,-7.94 7.13,-16.74 11.21,-24.88 3.59,-7.29 6.72,-14.82 8.82,-22.68 -5.97,4.74 -9.53,11.64 -13.53,17.97 m -108,-10.78 c 2.82,0.1 8.47,0.28 11.3,0.38 1.29,-2.01 2.6,-4 3.86,-6.02 -5.82,-0.59 -10.95,1.87 -15.16,5.64 m 72.7,33.67 c 8.8,-11.81 15.95,-25.21 20.09,-39.38 -6.87,13.03 -13.78,26.06 -20.09,39.38 m 25.31,-37.28 c -6.15,13.08 -12.1,26.26 -18.37,39.29 10.99,-10.1 16.44,-24.25 22.9,-37.33 -1.52,-0.66 -3.03,-1.32 -4.53,-1.96 m -323.12,2.6 c -1.38,0.05 -1.5,2.48 0.01,2.4 1.43,-0.01 1.49,-2.51 -0.01,-2.4 m 295,2 c -1.39,0.05 -1.51,2.48 0.01,2.4 1.42,-0.01 1.49,-2.51 -0.01,-2.4 m 35.94,-0.54 c -4.63,10.98 -10.16,21.56 -15.07,32.42 7.41,-9.72 12.76,-20.8 18.92,-31.31 -1.29,-0.37 -2.57,-0.75 -3.85,-1.11 m -483.55,2.8 c 2.4,4 5.2,8.12 9.62,10.09 4.21,2.52 5.83,-5.1 3.65,-7.73 -3.85,-2.46 -9.04,-1.33 -13.27,-2.36 m -9.16,5.9 c -1.15,-0.88 -2.29,-1.76 -3.44,-2.63 -1.13,1.62 -2.31,3.22 -3.52,4.8 7.5,5.54 15.46,10.68 24.49,13.3 0.35,-1.58 0.71,-3.16 1.05,-4.73 -5.47,-3.53 -10.44,-7.97 -12.75,-14.2 -1.94,1.16 -3.88,2.31 -5.83,3.46 m 448.65,20.67 c 4.87,-7.54 9.2,-15.43 12.94,-23.59 -6.67,6.37 -9.75,15.2 -12.94,23.59 M 100.18,307.86 c 3.17,1.82 6.41,3.53 9.44,5.59 13.82,10.45 29.14,18.69 43.3,28.65 13.99,7.45 27.26,16.1 41.02,23.94 16.31,6.91 31.95,15.25 47.56,23.57 16.04,11.52 35.14,17.32 52.57,26.27 41.34,21.2 84.14,39.49 127.87,55.19 8.88,2.94 16.89,9.14 26.62,8.94 -11.7,-7.53 -24.77,-12.6 -36.59,-19.94 -26.46,-14.11 -52.21,-29.54 -78.99,-43.04 -35.12,-17 -70.08,-34.65 -102.55,-56.39 -18.72,-10.15 -36.28,-22.33 -55.53,-31.51 -17.87,-8.29 -34.43,-19.06 -51.97,-27.95 -8.3,-3.04 -15.61,3.66 -22.75,6.68 m 210.32,-3.54 c -1.08,1.7 1.88,3.04 2.84,1.52 1.01,-1.68 -1.89,-3.05 -2.84,-1.52 m -113.58,5.95 c 3.04,1.42 6.16,2.57 9.37,3.61 1.91,-3.26 1.12,-6.67 -1.27,-9.41 -2.85,1.71 -5.56,3.64 -8.1,5.8 M 81.39,308.08 c -0.16,0.67 -0.48,2 -0.64,2.67 -0.48,-0.51 -0.96,-1.03 -1.43,-1.54 -1.49,8.86 -2.91,17.78 -2.21,26.81 0.6,13.85 0.07,27.72 0.48,41.57 1.29,-2.66 2.36,-5.43 3.39,-8.2 2.72,1.58 5.09,3.66 7.53,5.63 -1.35,-2.75 -2.95,-5.36 -4.54,-7.97 1.41,0.18 2.82,0.37 4.23,0.56 -2.24,-6.47 -4.96,-13.05 -4.55,-20.03 0.61,-6.79 1.76,-13.51 3.06,-20.19 0.59,-2.94 3.34,-6.38 6.67,-5.13 1.7,2.18 2.09,5.32 4.46,6.93 7.63,5.19 16.55,9.2 25.99,7.53 -1,2.02 -2,4.04 -2.97,6.09 6.78,2.81 12.82,8.93 20.61,8.1 2.83,4.9 9.01,5.56 13.7,7.8 7.56,2.42 14.45,6.4 21.77,9.39 13.08,5.42 24.69,13.65 36.66,21.07 18.86,9.57 37.1,20.34 55.83,30.15 7.27,1.93 13.1,6.87 19.85,9.95 1.69,-0.36 3.22,-1.2 4.8,-1.87 0.41,6.15 6.78,8.48 11.41,10.99 6.83,3.34 13.07,7.77 19.95,11.02 14.37,5.66 28.16,12.67 42.13,19.24 0.96,-1.1 1.93,-2.18 2.9,-3.27 1.07,1.94 1.89,4.09 3.45,5.7 2.3,1.32 5.25,0.71 7.57,2.06 8.22,4.79 17.79,6.26 26.49,9.91 11.15,4.87 22.27,10.08 32.11,17.33 -1.47,1.65 -3.2,3.14 -4.2,5.14 -1.11,15.05 -4.59,30.24 -1.02,45.24 -0.91,-0.09 -1.8,-0.18 -2.7,-0.26 0.2,3.04 2.28,6.27 1.34,9.39 -4.56,8.7 2.25,18.54 -1.22,27.6 -1.53,-0.93 -3.1,-1.76 -4.68,-2.56 1.38,-2.29 2.97,-4.81 2.31,-7.61 -1.37,-7.8 -1.4,-15.68 -1.75,-23.55 -3.7,4.48 -8.47,8.9 -9.03,15 1.96,-0.67 3.92,-1.32 5.89,-1.94 -1.15,1.49 -2.32,2.96 -3.51,4.43 0.57,2.18 1.11,4.37 1.59,6.58 1.02,-1.4 2.06,-2.78 3.15,-4.13 -0.44,4.15 -0.98,8.42 -3.63,11.81 -3.83,-2.71 -8.04,-6.26 -13.05,-4.34 9.78,4.6 19.98,8.27 30.12,11.96 3.49,-11.13 1.81,-22.75 2,-34.17 1.57,-23.71 3.99,-47.53 1.46,-71.26 -0.35,-2.4 -3.21,-2.92 -4.99,-3.93 -9.32,-3.64 -18.23,-8.27 -27.82,-11.19 -29.06,-10.34 -57.44,-22.5 -85.44,-35.42 -18.86,-9.27 -37.67,-18.68 -56.85,-27.29 -17.82,-7.47 -33.25,-19.4 -51.01,-26.98 -11.71,-6.57 -24.65,-10.71 -35.97,-18 -15.94,-10.18 -32.19,-20.08 -49.71,-27.35 -12.47,-6.26 -24.14,-13.99 -36.54,-20.38 -4.37,-2.12 -6.41,-6.8 -9.85,-9.98 l -0.44,2.88 c -1.05,-0.66 -2.1,-1.33 -3.15,-1.99 m 231.23,4.63 c 2.32,2.18 4.89,4.08 7.66,5.65 -1.82,-2.75 -4.24,-5.19 -7.66,-5.65 m 210.36,1.35 c -2.5,6.28 -4.8,12.66 -7.89,18.68 4.27,0 8.52,0.13 12.82,0.22 2.92,-4.93 5.74,-9.92 8.21,-15.08 -2.63,-0.24 -5.25,-0.5 -7.86,-0.79 0.54,-0.93 1.08,-1.86 1.63,-2.79 -1.73,-0.06 -5.18,-0.18 -6.91,-0.24 m -330.11,-0.04 c -0.3,2.41 -0.65,4.71 -0.91,7.16 8.21,3.07 16.27,6.54 24.02,10.65 0.28,-0.91 0.56,-1.82 0.84,-2.72 -7.14,-6.36 -14.43,-12.84 -23.95,-15.09 m 113.45,1.49 c -4.48,2.97 -9.32,6.07 -11.44,11.26 -3.24,8.22 -8.18,15.57 -13.05,22.89 5.84,3.17 9.63,8.68 13.13,14.17 8.03,-11.21 17.46,-21.33 25.26,-32.7 3.54,-3.74 8.51,-5.64 12.35,-9.02 -3.26,-0.43 -6.1,0.97 -8.87,2.44 -6.2,-2.1 -11.64,-5.98 -17.38,-9.04 m -93.69,4.41 c 2.48,1.78 4.98,3.53 7.49,5.27 0.76,-2.48 1.48,-4.98 2.16,-7.48 -3.24,0.63 -6.46,1.36 -9.65,2.21 m 372.45,0.39 c -1.42,-0.08 -1.69,2.37 -0.16,2.38 1.41,0.07 1.68,-2.38 0.16,-2.38 m 162.51,1.92 c 8.09,5.69 16.66,10.67 24.63,16.54 8.56,6.16 17.65,11.72 27.58,15.39 0.24,-1.64 0.51,-3.26 0.79,-4.89 -16.1,-11.81 -34.06,-20.74 -53,-27.04 m -518.27,9.24 c 1.76,0.11 3.53,0.32 5.3,0.12 1.75,-1.69 2.83,-3.92 4.07,-5.97 -4.56,-1.41 -7.4,2.38 -9.37,5.85 m -134.18,0.02 c -0.24,6.52 -5.78,12.74 -2.35,19.23 6.59,-2.94 12.68,-6.87 19.14,-10.09 -5.91,-2.31 -12.23,-4.53 -16.79,-9.14 m -7.52,4.1 c 0.8,2.46 1.5,4.95 2.06,7.47 0.99,-2.47 1.99,-4.94 2.98,-7.41 -1.66,1.42 -3.47,1.56 -5.04,-0.06 m 481.81,4.86 c -3.8,4.54 -7.55,9.13 -11.42,13.61 3.48,1.99 7.06,3.81 10.84,5.17 15.27,5.69 29.33,14.07 44.17,20.72 15.34,7.33 31.07,13.82 46.07,21.86 11.87,5.38 24.19,9.73 36.05,15.14 9.53,5.34 19.89,8.82 29.9,13.07 3.2,0.93 2.48,4.79 2.94,7.35 0.61,-1.41 1.81,-4.24 2.41,-5.65 -0.4,7.69 -2.64,15.29 -7.13,21.63 -0.8,-0.23 -2.42,-0.7 -3.22,-0.93 0.48,-5.28 1.77,-10.4 3.16,-15.49 -2.52,1.38 -5.02,2.79 -7.53,4.17 2.84,7.31 1.73,15.14 0.01,22.56 -4.54,-1.1 -9.16,-1.89 -13.78,-2.52 0.05,4.06 2.32,7.26 5,9.99 -2.38,5.25 -4.23,10.72 -5.94,16.23 17.86,-21.87 34.71,-44.7 49.02,-69.07 -2.25,-1.03 -4.48,-2.07 -6.71,-3.12 -1.05,2.62 -2.07,5.24 -3.18,7.83 -2.17,-0.58 -4.33,-1.15 -6.49,-1.69 1.12,0.97 2.25,1.93 3.4,2.89 -3.36,0.23 -6.7,-0.19 -9.96,-1 1.58,-4.73 5.3,-8.13 8.99,-11.26 -10.6,-5.41 -21.9,-9.25 -32.58,-14.48 -8.24,-4.34 -16.96,-7.67 -25.44,-11.5 -19.8,-8.25 -40.8,-13.19 -60.61,-21.43 -12.27,-5.42 -25.16,-9.33 -37.95,-13.21 -5.36,0.1 -10.22,-3.77 -9.64,-9.47 9.09,1.09 17.22,5.69 25.84,8.49 18.64,5.97 36.41,14.43 55.24,19.83 2.98,1 4.86,-2.36 7.1,-3.74 -8.74,-3.01 -17.15,-6.82 -25.47,-10.82 -14.15,-5.39 -28.48,-10.34 -42.21,-16.75 0.21,0.99 0.42,1.99 0.65,3 -2.63,-4.39 -9.41,-0.72 -10.16,-6.92 -3.96,1.34 -8.7,1.92 -11.37,5.51 M 86.98,339.77 c 0.68,4.53 -0.4,10.95 4.54,13.49 -1.45,-4.52 -3.15,-8.95 -4.54,-13.49 m 154.03,3.41 c 3.21,1.64 6.46,3.22 9.72,4.79 1.28,-1.98 2.58,-3.93 3.81,-5.94 -4.56,-0.56 -9.35,-1.19 -13.53,1.15 m -140.69,7.72 c 2.25,5.74 4.82,11.35 7.06,17.09 2.6,-1.44 5.19,-2.87 7.8,-4.3 -2.27,-3.12 -4.35,-6.43 -5.5,-10.14 1.52,-0.21 3.04,-0.39 4.56,-0.57 0.5,3.14 1.57,6.13 2.66,9.11 1.5,-0.99 3.01,-1.96 4.53,-2.91 -1.84,-3.72 -2.45,-7.85 -2.45,-11.96 4,1.39 4.98,5.18 3.95,8.91 0.33,0.42 1,1.26 1.34,1.68 2.57,-0.99 5.13,-1.99 7.69,-2.98 -0.06,-0.56 -0.2,-1.67 -0.27,-2.22 -6.01,-2.47 -11.51,-6.13 -16.17,-10.65 -5.34,2.5 -10.32,5.64 -15.2,8.94 m 395.79,4.79 c 5.21,-0.28 10.43,-0.15 15.64,-0.64 -3.8,-2.81 -7.24,-6.09 -10,-9.93 -1.82,3.55 -3.66,7.1 -5.64,10.57 m -188.74,2.84 c 3.25,-4.04 6.61,-8.05 8.93,-12.71 -3.83,3.45 -8.79,7.04 -8.93,12.71 m -29.21,-4.56 c -0.36,0.56 -1.07,1.68 -1.43,2.23 3.54,1.43 7.08,2.95 10.78,3.98 -2.62,-2.76 -5.98,-4.55 -9.35,-6.21 m -182.29,0.44 c 0.62,6.35 3.61,12.45 9.19,15.82 -2.63,-5.49 -3.7,-12.28 -9.19,-15.82 m 170.03,5.11 c 1.56,-1.54 2.95,-3.24 4.2,-5.04 -1.56,1.54 -2.95,3.24 -4.2,5.04 m -140.32,0.63 c 3.2,6.14 6.9,12 10.49,17.92 1.81,-0.34 3.61,-0.67 5.42,-1 -3.66,-5.3 -6.47,-11.41 -4.34,-17.96 2.69,5.35 3.26,11.51 6.86,16.5 7.28,-1.72 13.33,-6.58 20.68,-8.05 -1.5,5.46 -6.33,8.66 -10.67,11.78 2.21,-2.92 4.6,-5.72 6.92,-8.55 -4.9,2.43 -9.78,4.9 -14.73,7.22 4.67,5.51 8.52,11.65 12.33,17.78 0.9,-2.13 1.83,-4.23 2.78,-6.32 1.67,1.14 3.32,2.32 4.9,3.59 -1.62,-0.18 -3.23,-0.39 -4.84,-0.59 -0.13,1.31 -0.25,2.62 -0.37,3.94 3.15,-1.23 6.27,-2.51 9.33,-3.93 -3.38,-5.13 -7.25,-10.04 -9.57,-15.79 l 2.52,-0.4 c 2.99,5.47 6.72,10.5 10.01,15.79 8.23,-2.5 16.14,-7.48 25.05,-6.59 -1.96,2.36 -3.99,4.65 -6.02,6.94 4.65,7.72 7.88,16.82 15.21,22.51 -0.22,-7.99 -0.36,-16.05 1.15,-23.92 -13.54,-8.4 -26.99,-17.09 -41.99,-22.72 -9.56,-3.58 -18.23,-10.2 -28.72,-10.69 -2.89,1.52 -5.22,3.92 -7.91,5.77 2.03,-2.57 4.12,-5.08 6.06,-7.71 -3.59,1.32 -7.08,2.88 -10.55,4.48 m -36.16,-2.43 c 0.27,4.96 1.54,9.77 2.38,14.65 0.83,-2.99 2.01,-5.99 1.88,-9.14 -0.96,-2.14 -2.69,-3.82 -4.26,-5.51 m 206.24,12.66 c 4.06,-2.83 7.26,-6.84 8.81,-11.57 -3.33,3.53 -6.61,7.21 -8.81,11.57 m 256.64,-9.41 c -1.14,1.26 -2.29,2.52 -3.43,3.78 1.91,-0.15 3.82,-0.3 5.74,-0.47 0.76,2.95 0.43,7.05 3.95,8.25 21.05,10.25 42.99,18.83 63.3,30.57 11.56,4.88 22.12,11.83 33.96,16.06 18.24,7.04 35.88,15.47 53.02,24.83 2.27,-3.75 5.43,-6.81 8.4,-10 -19.44,-9.32 -39.14,-18.08 -59.12,-26.16 -21.31,-11.11 -43.68,-19.97 -65.05,-30.95 -13,-6.68 -26.32,-13.05 -40.77,-15.91 m -433.36,2.12 c 3.43,5.3 6.29,10.96 9.99,16.07 1.05,1.88 3.47,1.21 5.22,1.49 -3.25,-6.52 -7.36,-12.56 -11.28,-18.69 -1.31,0.37 -2.62,0.75 -3.93,1.13 m 657.61,17.49 c 3.01,-6.02 0.96,-12.95 -0.35,-19.11 -2.89,6.09 -0.87,12.85 0.35,19.11 M 278.21,365.14 c 3.02,3.66 7.15,6.14 11.71,7.37 -0.09,-1.84 -0.25,-5.52 -0.34,-7.37 -3.77,-0.49 -7.59,-0.51 -11.37,0 m -182.03,0.68 c -0.77,3.78 -1.48,7.56 -2.2,11.35 2.35,-1.51 4.67,-3.07 7.01,-4.59 -1.58,-2.27 -3.19,-4.52 -4.81,-6.76 m 13.66,4.07 c 1.59,5.13 4.55,9.83 8.54,13.46 -0.04,0.86 -0.09,1.72 -0.14,2.59 2.95,-0.99 5.88,-2.02 8.8,-3.09 -3.44,-5.79 -7.29,-11.31 -10.76,-17.07 -2.15,1.35 -4.45,2.51 -6.44,4.11 m 669.48,-2.56 c -1.33,0.93 0.25,3.17 1.56,2.15 1.31,-0.95 -0.26,-3.22 -1.56,-2.15 m -9.27,30.71 c -3.88,5.6 -7.72,11.3 -10.55,17.53 1.22,0.52 2.45,1.04 3.69,1.58 7.94,-12.2 17.73,-23.05 25.74,-35.18 3.41,-4.5 4.26,-10.27 3.9,-15.77 -8.74,9.76 -15.28,21.16 -22.78,31.84 M 272.54,370.27 c -0.92,1.13 1.04,2.6 1.92,1.46 0.92,-1.14 -1.05,-2.61 -1.92,-1.46 m 386.9,2 c 21.55,7.45 41.77,18.13 62.74,26.95 -7.7,-5.88 -17.01,-9.08 -25.09,-14.33 -8.34,-5.31 -17,-10.24 -26.36,-13.49 -3.75,-0.81 -7.56,0.45 -11.29,0.87 m -553.81,-0.53 c 1.01,2.53 2.44,4.86 4.28,6.88 -1.18,-2.44 -2.62,-4.75 -4.28,-6.88 m 437.56,1.12 c -2.41,3.06 -4.79,6.17 -7.12,9.3 5.49,-0.34 9.03,3.63 12.46,7.25 9.62,6.25 20.16,10.99 29.99,16.9 6.74,3.19 13.6,6.16 19.8,10.37 9.89,6.57 21.72,8.51 32.8,12.16 4.8,1.49 9.94,1.48 14.69,3.17 9.84,3.26 19.15,7.98 29.12,10.9 8.39,2.41 15.76,7.82 24.55,8.91 4.74,0.96 9.12,3.08 13.67,4.68 -1.99,-6.03 -8.48,-7.56 -13.32,-10.39 -17.26,-9.39 -35.2,-17.38 -53.54,-24.41 -33.91,-17.19 -67.84,-34.5 -103.1,-48.84 m -445.84,5.05 c 5.22,3.12 7.38,8.97 9.75,14.22 2.04,-1.04 4.08,-2.08 6.11,-3.14 -3.43,-5.09 -7.03,-10.07 -10.5,-15.14 -1.8,1.33 -3.59,2.68 -5.36,4.06 m -13.38,-3.02 c 1.03,1.66 2.05,3.34 2.96,5.07 0.8,-0.89 1.59,-1.79 2.39,-2.68 -1.78,-0.82 -3.57,-1.6 -5.35,-2.39 m 688.21,1.02 c -1.28,0.76 -0.34,3.34 1.17,2.65 1.18,-0.76 0.26,-3.26 -1.17,-2.65 m -290.16,4.27 c 1.65,2.01 3.3,4.06 4.96,6.08 3.48,-2.72 6.98,-5.41 10.4,-8.22 -5.15,0.56 -10.25,1.39 -15.36,2.14 m -343.44,0.23 c 3.41,6.62 6.2,13.98 11.49,19.4 2.21,-0.29 4.33,-1.05 6.46,-1.68 -3.84,-6.8 -8.48,-13.06 -13.34,-19.15 -1.53,0.49 -3.07,0.96 -4.61,1.43 m 657.59,0.39 c -1.28,0.45 -0.77,2.85 0.66,2.4 1.26,-0.46 0.75,-2.86 -0.66,-2.4 m -665.14,2.28 c 3.95,6.56 7.66,13.26 11.45,19.92 1.51,-0.64 3.02,-1.28 4.52,-1.91 -3.87,-6.25 -7.64,-12.56 -11.35,-18.89 -1.54,0.29 -3.08,0.59 -4.62,0.88 m 400.68,5.55 c 2.35,-1.45 3.72,-3.83 4.36,-6.47 -1.72,1.97 -3.18,4.14 -4.36,6.47 m -408.74,-1.55 c 1.43,1.6 2.88,3.18 4.29,4.79 -1.79,-0.21 -3.57,-0.43 -5.36,-0.65 3.32,5.28 6.81,10.44 10.22,15.67 2.65,-0.95 5.31,-1.89 7.96,-2.85 -3.82,-6.34 -7.69,-12.65 -11.5,-19 -1.85,0.73 -3.72,1.41 -5.61,2.04 m 209.29,8.89 c 7.16,1.86 16.51,0.62 19.68,-6.97 -7.27,-0.44 -15.13,0.66 -19.68,6.97 m 437.97,19.24 c -2.35,2.53 -1.68,5.98 -2.67,8.96 -8.96,1.54 -11.28,11.88 -16.43,17.98 -13.36,16.99 -25.84,34.67 -39.85,51.14 -2.8,3.28 -4.07,7.46 -5.58,11.41 -6.13,16.31 -10.26,33.29 -16.54,49.54 -2.75,7.05 -4.3,14.72 -8.66,21.03 7.09,-23.96 15.77,-47.44 22.43,-71.54 -6.13,5.96 -11.83,12.34 -17.34,18.87 -4.37,5.56 -9.05,11.52 -9.98,18.78 -1.96,14.9 -6.88,29.17 -10.62,43.68 -2.79,8.06 -3.94,16.63 -7.47,24.44 1.66,-10.03 4.48,-19.81 6.57,-29.75 -6.13,13.06 -11.24,26.62 -15.02,40.55 0.23,-9.43 3.95,-18.27 7.35,-26.92 6.81,-18.57 14.7,-36.95 17.3,-56.71 -2.96,3.71 -5.4,7.86 -8.82,11.18 -5.32,4.83 -8.38,11.59 -13.71,16.41 -1.38,-1.1 -2.75,-2.2 -4.11,-3.3 2.28,5.32 4.86,11.28 3,17.11 -3.43,9.41 -2.86,19.64 -3.77,29.46 -1.07,11.31 -3.03,22.52 -4.3,33.81 13.4,-15.73 26.47,-31.75 39.84,-47.5 18.14,-21.93 37.55,-42.93 53.18,-66.81 14.93,-21.64 29.62,-43.47 44.7,-65 2.02,-4.47 2.85,-9.35 3.4,-14.18 -2.69,3.59 -5.13,7.39 -8.19,10.7 1.28,-8.1 8.57,-13.54 9.96,-21.55 2.26,-16.05 4.23,-32.16 5.9,-48.28 -6.96,8.73 -14.74,16.93 -20.57,26.49 M 187.58,390.04 c -4.23,1.34 -8.45,2.72 -12.67,4.13 0.77,0.95 1.53,1.9 2.3,2.86 1.77,-1.53 3.55,-3.05 5.38,-4.49 -0.8,2.95 -2.44,5.93 -2.02,9.05 2.88,6.23 6.68,12 10.42,17.74 3.66,-1.35 7.31,-2.69 10.98,-4.01 -4.71,-6.67 -7.16,-15.66 -14.21,-20.4 0.35,-0.87 0.7,-1.73 1.05,-2.58 -0.31,-0.57 -0.92,-1.73 -1.23,-2.3 m 345.9,0.97 c 3,2.37 6.57,4.29 10.52,3.43 -2.4,-3.66 -6.41,-4.83 -10.52,-3.43 m -426.2,3.87 c 0.59,0.92 1.18,1.85 1.76,2.79 -0.58,-0.04 -1.74,-0.13 -2.33,-0.17 3.21,5.15 6.63,10.16 9.81,15.33 3.13,-1.34 6.29,-2.6 9.46,-3.85 -3.58,-6.12 -7.49,-12.03 -11.33,-17.99 -2.49,1.23 -4.95,2.52 -7.37,3.89 m 103.51,-2.1 c -0.97,6.76 -0.92,13.59 -0.67,20.4 2.44,-0.42 4.88,-0.86 7.32,-1.27 -1.71,-5.42 -2.44,-11.12 -0.71,-16.6 -2,-0.8 -3.98,-1.66 -5.94,-2.53 M 544,394.44 c 3.27,5.29 9.66,6.9 15.2,8.8 -4.83,-3.31 -9.91,-6.28 -15.2,-8.8 m -17.99,0.34 c -1.28,1.1 -3.83,3.31 -5.11,4.41 0.41,1.27 0.83,2.54 1.26,3.82 3.42,-0.15 7.45,-2.54 10.55,-0.65 3.16,1.7 -0.41,4.28 -1.49,6.2 5.44,2.1 10.45,5.12 15.83,7.34 11.92,4.54 24.01,8.87 35.26,14.96 17.96,9.35 37.03,16.2 55.55,24.3 11.73,4.98 22.82,11.29 34.34,16.74 3.95,1.68 7.6,5.09 12.15,4.88 5.7,-0.53 12.81,2.65 16.32,-3.52 -13.18,-6.31 -27.47,-9.92 -40.71,-16.14 -23.78,-8.29 -44.5,-23.08 -67.87,-32.28 -21.49,-11.24 -44.4,-19.26 -66.08,-30.06 m -365.08,4.23 c 6.18,8.86 9.59,19.48 16.64,27.72 -0.08,-10.49 0.83,-21.66 -4.4,-31.12 -4.09,1.11 -8.19,2.14 -12.24,3.4 m -59.33,-2.78 c -1.8,7.78 4.85,14.28 9.32,19.74 1.07,-0.4 2.13,-0.81 3.19,-1.23 -3.52,-6.58 -7.62,-12.86 -12.51,-18.51 m 117.74,0.71 c -0.65,4.8 -0.41,9.66 1.69,14.11 4.55,-1.61 10.77,-1.35 12.79,-6.57 -4.77,-2.62 -9.52,-5.29 -14.48,-7.54 m 144.19,11.58 c 2.87,0.87 5.74,1.77 8.61,2.65 2.17,-3.89 3.81,-8.04 5.13,-12.29 -5.7,1.27 -10.95,4.35 -13.74,9.64 M 88.17,400.8 c -1.27,0.45 -0.76,2.85 0.66,2.4 1.27,-0.46 0.76,-2.86 -0.66,-2.4 m 62.82,1.47 c 5.38,9.5 11.24,18.72 17.32,27.79 1.85,-0.77 3.72,-1.49 5.61,-2.16 -5.17,-9.33 -9.63,-19.07 -15.91,-27.74 -2.33,0.73 -4.67,1.43 -7.02,2.11 m 226.28,0.27 c -1.15,0.87 0.32,2.83 1.46,1.92 1.14,-0.88 -0.33,-2.84 -1.46,-1.92 M 92.3,403.01 c 0.83,1.47 1.68,2.95 2.76,4.26 -0.27,0.85 -0.54,1.69 -0.81,2.55 2.48,0.1 4.95,0.26 7.42,0.28 -1.58,-4.06 -4.74,-7.29 -9.37,-7.09 m 52.44,1.68 c 3.16,8.7 8.17,16.62 13.42,24.2 1.33,3.33 4.89,2.74 7.86,2.95 -5.73,-9.52 -12.15,-18.6 -17.89,-28.11 -0.85,0.24 -2.54,0.72 -3.39,0.96 m 319.03,0.43 c 3.24,1.99 6.33,4.49 10.08,5.42 2.99,-0.56 3.78,-3.92 5.03,-6.22 -5.05,-0.06 -10.1,0.12 -15.11,0.8 m -375.6,1.68 c -1.27,0.45 -0.76,2.85 0.66,2.4 1.27,-0.46 0.76,-2.86 -0.66,-2.4 m 147.75,-1.25 c -0.52,3.58 -0.88,7.13 -1.14,10.75 1.94,-1.89 3.83,-3.83 5.78,-5.71 -3.19,6.56 -2.39,13.92 1.2,20.13 4.73,-0.75 9.49,-1.4 14.26,-1.95 -0.11,-4.1 -0.16,-8.23 -0.18,-12.32 -6.94,-3.06 -13.24,-7.33 -19.92,-10.9 m -102.43,3.32 c 3.99,6.98 8.76,13.48 13.85,19.71 1.34,-2.07 4.54,-4.1 2.98,-6.86 -2.48,-5.15 -4.94,-10.77 -9.46,-14.44 -2.53,0.14 -4.94,0.97 -7.37,1.59 m 45.88,-2.32 c 0.1,6.12 0.34,12.26 0.64,18.39 2.65,-1.45 5.33,-2.87 8,-4.28 -2.77,-4.78 -5.58,-9.53 -8.64,-14.11 m 327.77,13.32 c 16.95,8.73 36.17,11.94 53.05,20.85 21.9,11.44 44.19,22.08 66.59,32.5 7.44,3.87 15.01,7.51 22.95,10.26 11.81,5.54 23.72,10.84 35.54,16.35 -1.03,-1.6 -2.07,-3.19 -3.11,-4.78 0.86,-1.13 1.74,-2.25 2.64,-3.36 0.99,1.01 1.99,2.02 3,3.04 0.66,-2.25 1.37,-4.48 2.13,-6.69 -13.63,-8.62 -28.75,-14.43 -42.96,-21.97 -12.36,-6.39 -25.32,-11.44 -38.08,-16.94 -19.51,-7.22 -37.2,-18.61 -57.07,-24.96 -12.25,-5.36 -24.91,-9.7 -37.05,-15.31 -2.57,3.65 -5.21,7.25 -7.63,11.01 m -405.68,-10.4 c 0.08,4.25 1.63,9.5 6.75,9.57 -2.19,-3.26 -4.33,-6.51 -6.75,-9.57 m 17.32,4.96 c 6.31,7.89 10.34,18.31 19.71,23.16 l 0.43,-5.57 c 3.08,5.93 8.55,9.98 14.24,13.21 -6.51,-12.75 -16.8,-22.74 -25.33,-34.05 -3.01,1.09 -6.02,2.2 -9.05,3.25 m 106.68,2.14 c 0.45,-1.72 0.9,-3.43 1.32,-5.15 -1.41,1.49 -4.09,2.79 -3.23,5.25 1.81,5.98 4.95,11.48 7.42,17.22 2.02,-0.81 4.05,-1.57 6.1,-2.28 -1.48,-6.79 -3.1,-13.55 -5.16,-20.19 -2.06,1.82 -4.22,3.53 -6.45,5.15 m -14.45,-0.92 c 2.34,7.14 4.73,14.26 7.22,21.36 3.26,-0.99 6.55,-1.93 9.81,-2.93 -3.06,-6.33 -5.71,-12.84 -8.32,-19.35 -2.92,0.09 -5.83,0.41 -8.71,0.92 m -95.91,-0.41 c -0.59,1.21 -1.23,2.42 -1.72,3.7 3.86,2.23 5.96,6.15 8.46,9.67 0.03,-5.34 -3.73,-9.34 -6.74,-13.37 m 270.18,8.96 c 5.37,0.14 8.43,-4.48 11.02,-8.44 -4.11,2.19 -7.64,5.28 -11.02,8.44 m -178.17,-7.9 c 0.74,2.48 1.76,4.86 3.04,7.11 -0.63,-2.52 -1.58,-4.95 -3.04,-7.11 m -15.1,5.67 c 3.32,6.44 6.49,12.97 10.14,19.24 3.71,-0.96 7.42,-1.9 11.14,-2.83 -2.99,-7.07 -6.45,-13.92 -10.31,-20.55 -3.65,1.41 -7.31,2.76 -10.97,4.14 m 67.13,-3.22 c -0.24,3.09 -0.49,6.19 -0.7,9.29 3.39,-1.34 6.68,-2.9 9.91,-4.58 -3.03,-1.63 -6.13,-3.17 -9.21,-4.71 m -165.58,3.96 c 3.88,3.09 7.91,6.15 12.68,7.73 -3.21,-3.83 -7.12,-8.39 -12.68,-7.73 m 356.73,1.27 c 3.08,2.22 6.38,5.16 10.44,4.86 2.2,-1.64 3.83,-3.9 5.62,-5.96 -5.38,-0.51 -10.9,-0.84 -16.06,1.1 m -269.61,3.05 c 1.02,7.24 3.35,14.18 5.51,21.13 4.3,-2.08 8.64,-4.1 13.1,-5.82 -3,-6.67 -6.98,-12.84 -10.04,-19.48 -2.89,1.32 -5.74,2.73 -8.57,4.17 m 567.47,4.09 c -12.51,20.53 -27.71,39.23 -41.32,58.99 14.55,-15.41 26.85,-32.73 39.88,-49.39 4.37,-5.75 8.74,-11.6 11.79,-18.18 -5.67,-0.34 -7.77,4.82 -10.35,8.58 m -334.51,-8.29 c -2.49,3.78 -5.14,7.49 -7.09,11.59 3.07,-1.73 8.01,-1.92 9.21,-5.74 0.91,-2.23 -1.15,-4.06 -2.12,-5.85 m -306.9,2.58 c -0.76,1.44 1.68,2.95 2.79,1.91 0.81,-1.47 -1.68,-3 -2.79,-1.91 m 164.99,-0.83 c -2.11,2.28 -4.24,4.56 -6.38,6.83 0.57,-1.48 1.15,-2.95 1.72,-4.43 -1.59,0.8 -4.78,2.41 -6.38,3.21 -0.16,10.04 6.56,17.93 10.47,26.64 4.74,-0.81 9.49,-1.57 14.26,-2.24 -2.28,-5.28 -4.97,-10.39 -7.08,-15.74 -2.18,-4.78 -2.12,-10.8 -6.61,-14.27 m -186.44,1.95 c -0.87,1.23 1.24,2.51 2.04,1.32 0.82,-1.2 -1.26,-2.48 -2.04,-1.32 m 66.78,-0.77 c -0.13,2.24 -0.24,4.49 -0.42,6.74 1.67,-0.01 3.34,-0.02 5.01,-0.01 -1.42,-2.32 -2.92,-4.58 -4.59,-6.73 M 416,431.64 c 1.56,-1.74 2.87,-3.68 3.82,-5.81 -1.61,1.7 -2.78,3.73 -3.82,5.81 m -291.82,-4.27 c -1.66,0.33 -0.9,2.94 0.66,2.58 1.63,-0.29 0.84,-2.94 -0.66,-2.58 m -17.57,3.52 c 4.42,2.59 9,5.14 14.15,5.9 4.01,7.12 12.85,9.1 19.34,13.39 -3.34,-4.67 -5.91,-10.24 -11.12,-13.14 -6.64,-3.98 -14.24,-9.55 -22.37,-6.15 m 171.12,-2.18 c 2.43,8.77 6.88,16.77 10.57,25.04 0.67,0.09 2.01,0.25 2.69,0.33 -1.41,-6.37 -1.92,-12.91 -3.08,-19.3 -2.39,-3.25 -6.84,-4.11 -10.18,-6.07 m -185.26,2.04 c -0.67,1.75 3.1,3.36 3.73,1.53 -0.46,-1.34 -2.47,-2.37 -3.73,-1.53 m 404.36,0.04 c 3.96,3.27 8.28,6.28 13.3,7.65 -2.91,-4.78 -7.93,-6.98 -13.3,-7.65 m -325.84,1.44 c 2.48,4.45 4.7,9.08 7.52,13.34 -1.38,-4.87 -2.92,-9.69 -4.14,-14.6 -1.13,0.42 -2.26,0.83 -3.38,1.26 m 342.73,-1.04 c 5.32,5.69 10.08,12.89 17.94,15.16 -0.51,-3.66 -1.31,-7.3 -2.28,-10.85 -4.67,-2.9 -10.45,-2.93 -15.66,-4.31 M 242.9,433.1 c 2.08,10.05 8.84,18.14 11.96,27.78 3.45,-0.73 6.93,-1.42 10.4,-2.12 -2.7,-9.15 -7.39,-17.63 -9.54,-26.93 -4.28,0.37 -8.55,0.79 -12.82,1.27 m -80.38,2.16 c 2.27,1.91 4.64,3.69 7.12,5.31 -0.26,-2.59 -0.74,-5.15 -1.33,-7.68 -1.93,0.78 -3.86,1.57 -5.79,2.37 m 279.72,-1.58 c -1.37,0.93 -0.01,3.57 1.52,2.64 1.36,-0.94 0,-3.58 -1.52,-2.64 m 13.96,14.9 c 3.9,-4.66 7.08,-9.9 9.63,-15.41 -5.15,3.65 -8.33,9.33 -9.63,15.41 M 150.57,435.13 c 2.35,3.7 4.47,7.6 7.3,10.98 3.89,2.9 8.37,4.92 12.7,7.09 -0.05,-0.6 -0.14,-1.79 -0.19,-2.39 1.21,1.04 2.41,2.1 3.62,3.16 1.71,-0.78 3.43,-1.53 5.16,-2.28 -2.48,-3.77 -4.2,-10.45 -9.42,-10.54 -5.28,1.29 -8.81,-2.71 -11.94,-6.06 -1.81,0.01 -5.43,0.03 -7.23,0.04 m 81.29,1.04 c 3.1,7.76 6.5,15.4 9.91,23.03 0.93,2.26 2.79,3.92 4.78,5.25 -1.33,-10.28 -5.69,-19.72 -8.77,-29.52 -1.97,0.42 -3.94,0.83 -5.92,1.24 m 207.61,-1.6 c -2.75,2.17 -5.46,4.36 -8.17,6.57 2.31,0.68 5.5,3.08 7.54,0.7 2.31,-1.86 1.08,-4.9 0.63,-7.27 m -148.09,1.26 c -1.6,5.94 1.25,11.73 2.68,17.43 1.59,-0.73 3.18,-1.47 4.77,-2.21 -1.22,-4.4 -2,-8.93 -2.61,-13.46 -1.61,-0.59 -3.23,-1.18 -4.84,-1.76 m 338.23,-0.01 c 1.99,1.82 4.27,3.29 6.73,4.43 -2.07,-1.74 -4.33,-3.23 -6.73,-4.43 m -409.91,4.22 c 3.28,8.74 6.91,17.34 10.66,25.89 3.59,-0.3 7.19,-0.64 10.79,-1.02 -3.66,-9.54 -8.21,-18.71 -12.3,-28.06 -3.06,1.03 -6.11,2.09 -9.15,3.19 m 80.51,-0.03 c 0.32,3.59 0.51,7.18 0.77,10.78 3.75,-1.2 7.52,-2.32 11.31,-3.4 -3.88,-2.69 -8.02,-5 -12.08,-7.38 m 190.46,0.51 c -3.06,2.26 -5.49,5.25 -8.25,7.84 4.95,6.36 13.65,7.01 20.31,10.86 15.34,5.26 30.6,10.85 45.31,17.72 13.61,6.85 28.13,11.59 41.85,18.19 22.39,9.5 45.34,17.62 67.85,26.82 3.8,0.74 8.31,1.81 11.73,-0.45 2.82,-1.59 3.04,-6.47 -0.22,-7.69 -12.12,-6.97 -25.77,-10.58 -38.23,-16.84 -39.6,-17.56 -79.08,-35.34 -119.22,-51.59 -6.88,-1.95 -13.65,-6.56 -21.13,-4.86 m -286.71,3.15 c 3.97,10.61 6.58,23.25 15.77,30.52 3.85,-10.86 -2.71,-21.65 -6.57,-31.61 2.06,2.43 4.02,4.95 6.04,7.43 -1.32,-2.96 -2.72,-5.89 -4.1,-8.81 -3.7,0.88 -7.43,1.63 -11.14,2.47 m 443.7,-2.79 c 2.42,3.74 5.8,6.79 10.02,8.4 13.08,4.9 25.89,10.55 39.34,14.42 0.2,-1.33 0.6,-4 0.8,-5.34 -3.86,0.23 -7.73,0.14 -11.6,0.03 0.42,-1.04 0.86,-2.07 1.29,-3.09 -13.23,-4.96 -26.34,-10.26 -39.85,-14.42 m -509.39,1.66 c -1.14,0.87 0.32,2.83 1.46,1.92 1.14,-0.88 -0.32,-2.85 -1.46,-1.92 m 305.96,-0.19 c -1.96,2.39 -4.03,4.68 -6.19,6.89 4.28,1.15 8.6,2.2 12.96,3.04 -2.32,-3.27 -4.63,-6.55 -6.77,-9.93 m 90.5,0.23 c 0.13,1.51 0.39,4.54 0.52,6.05 7.62,2.47 15.07,5.42 21.99,9.51 -4.25,-8.77 -13.16,-13.98 -22.51,-15.56 m -392.02,1.5 c 0.31,2.67 -1.74,6.6 1.21,7.99 6.28,3.54 13.04,6.17 19.21,9.91 -2.11,-3.53 -3.54,-7.63 -6.59,-10.47 -4.36,-2.93 -9.16,-5.07 -13.83,-7.43 m 50.31,4.41 c -1.14,3.33 -2.8,7.44 0,10.52 1.77,4.32 6.37,5.47 10.21,7.09 0.29,-7.25 0.02,-14.74 -2.96,-21.47 -2.45,1.2 -5.23,1.94 -7.25,3.86 m 363.43,-2.01 c -1.36,0.87 -0.14,3.54 1.41,2.73 1.39,-0.89 0.18,-3.66 -1.41,-2.73 m -311.22,2.51 c -1.04,0.91 -0.55,3.02 0.8,3.38 1.85,-0.22 0.88,-3.9 -0.8,-3.38 m 316.48,-0.79 c 2.51,5.86 5.99,11.65 11.78,14.78 0.51,-2.69 1.02,-5.37 1.54,-8.04 -4.44,-2.25 -8.98,-4.31 -13.32,-6.74 m -371.59,1.07 c -1.5,-0.48 -2.56,1.98 -0.9,2.46 1.49,0.53 2.55,-2.04 0.9,-2.46 m 111.89,3.79 c 2.93,8.5 6.61,16.71 10.29,24.91 3.42,-1.07 6.86,-2.06 10.32,-3.02 0.14,-6.55 -1.75,-15.68 4.75,-19.89 -1,6.21 -0.33,12.56 2.52,18.23 9.54,-0.37 18.88,-3.14 28.48,-2.4 -0.94,1.99 -1.89,3.97 -2.84,5.96 -1.44,-1.77 -3.6,-2.58 -5.77,-3.08 2.1,7.6 2.29,15.84 6.89,22.59 -1.04,-6.42 -1.33,-12.93 0.65,-19.25 1.68,2.02 3.17,4.18 4.53,6.43 -1.01,-0.41 -2.01,-0.82 -3,-1.22 -1.82,6.48 0.2,13 1.49,19.37 1.81,-1.22 5.22,-1.56 5.19,-4.32 0.42,-7.3 -0.16,-14.66 0.05,-21.96 0.5,-3.16 -3.03,-4.44 -5.28,-5.62 -13.71,-4.73 -25.42,-13.87 -39.52,-17.63 -3.25,-1.17 -5.93,1.97 -8.75,3.06 1.38,-2.03 2.79,-4.05 4.18,-6.08 -4.74,1.27 -9.47,2.59 -14.18,3.92 M 129.68,452.2 c 16.28,9.39 33.1,17.86 49.61,26.88 -6.28,-7.59 -16.14,-10.19 -24.32,-15.05 -8.08,-4.66 -16.61,-8.46 -25.29,-11.83 m 54.78,-0.93 c 1.31,4.23 2.47,8.93 6.5,11.42 -1.87,-3.97 -3.94,-7.86 -6.5,-11.42 m -22.52,2.52 c 2.12,3.7 4.3,7.4 7.02,10.7 0.64,-2.48 1.27,-4.94 1.9,-7.39 -2.96,-1.15 -5.92,-2.29 -8.92,-3.31 m 17.58,1.33 c -1.03,1.3 1.21,2.87 2.15,1.56 1.07,-1.32 -1.21,-2.88 -2.15,-1.56 m 116.07,-0.08 c 3.27,8.71 7.42,17.16 13.06,24.59 -2.21,-8.43 -6.23,-16.22 -9.03,-24.44 -1.34,-0.06 -2.69,-0.1 -4.03,-0.15 m -74.38,0.44 c 0.62,3.54 1.69,7.01 3.36,10.21 -0.52,-3.57 -1.53,-7.08 -3.36,-10.21 m 69.49,-0.24 c 0.37,9.15 5.41,17.28 8.23,25.84 1.7,-0.45 3.41,-0.89 5.12,-1.31 -4.43,-8.18 -7.61,-17.12 -13.35,-24.53 m -85.42,1.39 c 0.4,3.86 0.75,7.73 1.65,11.52 1.44,1.49 3.46,2.22 5.24,3.21 -2.03,-5.03 -4.3,-9.96 -6.89,-14.73 m 43.02,1.29 c -1.03,1.23 0.25,4.13 1.95,3.61 0.88,-1.24 -0.36,-3.96 -1.95,-3.61 m 23.99,2.14 c 3.18,7.77 6.07,15.65 8.97,23.53 4.77,-1.57 9.73,-2.48 14.75,-2.48 -2.86,-8.02 -5.75,-16.01 -9.06,-23.85 -4.89,0.94 -9.77,1.86 -14.66,2.8 m 206.68,-3 c -2.2,3.71 -4.11,7.58 -5.82,11.54 14.14,5.24 27.67,12 41.65,17.68 16.34,6.86 33.37,12.01 49.51,19.39 17.55,7.15 35.32,13.82 53.31,19.78 6.48,2.36 12.57,6.03 19.52,6.94 7.06,0.39 12.4,5.72 19.13,7.38 1.31,-2.69 2.83,-5.27 4.46,-7.77 -6.84,-4.33 -13.75,-8.65 -21.4,-11.38 -26.37,-9.91 -52.74,-19.85 -78.4,-31.5 -18.85,-7.37 -36.68,-17.36 -56.21,-22.91 -8.55,-3.15 -16.99,-6.61 -25.75,-9.15 m 99.6,-0.01 c 0.85,3.53 1.23,7.24 2.8,10.56 7.37,4.84 15.84,7.52 23.82,11.15 11.72,4.75 23.06,10.38 34.62,15.53 9.66,4.39 19.71,7.92 29.15,12.84 4.23,1.85 8.15,4.69 12.73,5.64 3.14,-2.62 5.08,-6.33 7.5,-9.56 -2.24,0.69 -4.53,2.58 -6.96,1.57 -35.08,-14.74 -69.32,-31.34 -103.66,-47.73 m -404.91,1.02 c -0.05,2.38 -0.11,4.77 -0.24,7.16 8.8,6.27 19.01,9.93 28.51,14.91 10.21,5.98 20.6,11.66 31.32,16.67 10.34,5.75 20.43,12.01 31.34,16.67 23.89,10.59 46.46,23.91 70.19,34.85 10.08,5.15 19.95,10.83 30.61,14.74 -5.59,-10.15 -17.35,-13.48 -26.29,-19.9 -1.15,1.05 -2.31,2.11 -3.46,3.16 -2.8,-4.42 -5.57,-9.2 -10.54,-11.49 -7.6,-3.51 -14.77,-11.54 -23.89,-9.29 0.2,-1.22 0.4,-2.43 0.61,-3.63 -8.92,-4.03 -17.68,-8.37 -25.8,-13.85 -1.44,1.57 -2.94,3.1 -4.52,4.54 -2.25,-3.44 -4.01,-7.29 -6.73,-10.36 -5.31,-3.42 -11.38,-5.47 -17.05,-8.22 -0.48,2.6 -1.14,5.15 -1.84,7.7 -6.83,-4.24 -8.03,-13.72 -15.61,-16.95 -8.51,-4.17 -16.5,-9.4 -25.58,-12.35 -10.84,-3.72 -20.29,-10.45 -31.03,-14.36 m 82.35,6.16 c 1.14,9.07 4.77,17.5 8.04,25.95 2.2,-0.77 4.4,-1.53 6.6,-2.29 0.16,-3.13 0.23,-6.25 0.58,-9.36 0.6,2.69 1.11,5.4 1.53,8.12 1.14,-0.03 2.28,-0.06 3.43,-0.09 -2.17,-8.91 -6.1,-17.3 -10.12,-25.51 -3.39,0.92 -6.9,1.59 -10.06,3.18 m -4.7,1.67 c -1.02,0.94 -0.39,2.94 0.89,3.31 1.89,-0.25 0.83,-3.94 -0.89,-3.31 m -5.25,-0.63 c 0.51,6.73 4.52,12.45 8.88,17.34 -2.18,-6.14 -5.01,-12.09 -8.88,-17.34 m -13.31,3.84 c 1.92,2.7 3.85,5.43 5.76,8.16 0.19,-2.91 0.45,-5.82 0.83,-8.71 1.96,5.47 3.36,11.16 5.65,16.51 3.67,6.36 11.51,7.85 17.52,11.15 -1.73,-4.26 -2.62,-8.78 -3.74,-13.22 -1.67,1.19 -3.33,2.38 -5.01,3.55 -4.97,-5.32 -8.03,-12.04 -11.14,-18.53 -3.3,0.33 -6.58,0.7 -9.87,1.09 m -8.32,-0.91 c -0.52,2.83 -0.99,5.6 -1.44,8.45 3,1.55 5.98,3.14 9.01,4.64 -1.83,-4.72 -3.62,-9.69 -7.57,-13.09 m 244.31,4.79 c -0.25,0.76 -0.76,2.28 -1.01,3.04 2.63,0.17 5.26,0.34 7.91,0.51 -2.26,-1.27 -4.57,-2.44 -6.9,-3.55 m -236.85,0.69 c 1.64,6 5.3,11.35 11.3,13.62 -0.64,-2.69 -1.37,-5.35 -2.12,-8 -1.02,0.42 -2.03,0.86 -3.05,1.29 -1.8,-2.51 -4,-4.69 -6.13,-6.91 m 100.92,3.29 c 3.73,9.63 8.11,19 12.35,28.43 3.08,-1.13 6.14,-2.3 9.19,-3.49 -2.44,-9.06 -8.18,-17.43 -7,-27.17 -4.86,0.66 -9.71,1.38 -14.54,2.23 m 35.8,-2.96 c -1.88,8.32 -1.2,16.76 0.57,25 2.62,-0.46 5.37,-0.74 8.03,-1.12 -2.77,-7.98 -4.06,-16.64 -8.6,-23.88 m 109.41,2.84 c -3.58,3.27 -7.66,6.04 -10.39,10.13 16.79,11.09 35,19.83 53.34,28.04 18.55,7.37 36.2,16.77 54.61,24.48 14.6,5.72 28.23,13.97 43.64,17.51 6.08,1.38 12.3,0.15 18.13,-1.75 -4.4,-5.88 -7.01,-12.77 -10.68,-19.02 -6.25,-4.95 -14.61,-6.02 -21.84,-9.03 -18.55,-7.75 -37.87,-13.48 -56.19,-21.81 -23.89,-8.65 -47.31,-18.46 -70.62,-28.55 m -104.45,0.1 c 0.9,2.88 1.87,5.76 3.01,8.57 0.04,-2.68 0.07,-5.34 0.1,-8 -0.78,-0.14 -2.34,-0.43 -3.11,-0.57 m -46.66,0.44 c -0.56,3.7 0.73,7.3 1.87,10.76 2.31,6.72 4.27,13.58 7.09,20.12 2.02,-0.75 4.05,-1.46 6.1,-2.14 -2.85,-6.79 -5.9,-13.5 -8.85,-20.25 -1.6,-3.11 -2.75,-6.96 -6.21,-8.49 m -13.3,2.78 c 2.98,10.84 7.78,21.06 11.33,31.72 2.43,-0.78 4.86,-1.54 7.31,-2.26 -2.4,-10.34 -6.69,-20.15 -8.53,-30.63 -3.39,0.35 -6.74,0.78 -10.11,1.17 m 66.15,-1.48 c -0.32,6.13 -0.14,12.27 0.18,18.41 5.55,-1.57 11.03,-3.34 16.45,-5.28 1.2,-2.47 2.62,-4.82 4.22,-7.03 -7.03,-1.77 -13.9,-4.09 -20.85,-6.1 m 82.79,2.5 -0.64,2.84 c 1.51,0.26 3.02,0.53 4.54,0.78 l 0.64,-2.84 c -1.52,-0.27 -3.03,-0.54 -4.54,-0.78 m -153.26,0.26 c 1.39,4.5 2.76,9.15 5.55,13.03 -1.03,-4.65 -2.81,-9.13 -5.55,-13.03 m -9.45,2.75 c 3.3,10.97 6.27,22.74 14.38,31.25 0.24,-3.66 -0.05,-7.31 -0.49,-10.92 1.66,3.34 3.19,6.75 5.05,9.99 -2.02,-11.35 -8.21,-21.32 -12.9,-31.68 -2.01,0.46 -4.03,0.92 -6.04,1.36 m -8.81,0.94 c 1.67,9.43 2.09,19.07 4,28.45 4.27,4.27 10.36,6.31 15.94,3.66 -7.1,-9.86 -11.18,-21.36 -14.11,-33.03 -1.46,0.23 -4.37,0.69 -5.83,0.92 m 405.49,-1.71 c -1.25,5.52 -3.39,10.76 -5.19,16.11 4.2,-4.19 7.47,-10.11 5.19,-16.11 m -413.44,4.62 c 2.11,7.71 5.28,15.06 8.62,22.31 -0.56,-8.28 -1.65,-16.52 -2.27,-24.79 -2.13,0.79 -4.25,1.63 -6.35,2.48 m 119.12,-2.06 c 0.48,2.9 1.48,5.67 2.61,8.39 -1.1,-0.27 -2.2,-0.54 -3.29,-0.81 1.72,7.96 4.86,15.49 7.61,23.14 2.68,-0.75 5.37,-1.45 8.08,-2.11 -1.36,-6.23 -3.18,-12.35 -5.34,-18.35 0.55,-0.36 1.66,-1.09 2.21,-1.45 2.7,6.41 3.99,13.65 8.56,19.1 -0.16,-6.58 -1.59,-13.08 -1.12,-19.68 -6.37,-2.9 -12.75,-5.8 -19.32,-8.23 m -129.21,4 c 1.75,4.51 3.06,9.31 5.75,13.39 2.84,3.31 6.8,5.39 10.28,7.95 -2.97,-7.93 -9.05,-14.2 -11.64,-22.29 -1.46,0.32 -2.93,0.64 -4.39,0.95 m -33.39,-0.34 c 1.43,2.9 3.39,5.49 5.71,7.74 -0.93,-3.21 -2.88,-5.94 -5.71,-7.74 m 25.09,3.76 c 1.78,3.31 4.3,6.11 7.48,8.15 -0.54,-3.59 -0.91,-7.21 -1.73,-10.74 -1.91,0.86 -3.83,1.73 -5.75,2.59 m 191.51,-1.34 c -0.29,8.94 -2.75,17.78 -1.82,26.75 1.36,9.23 5.81,17.53 8.53,26.37 -1.34,-7.18 -2.73,-14.45 -1.9,-21.78 5.82,21.86 7.27,44.6 13.67,66.33 0.65,4.34 1.75,9.6 6.71,10.87 20.24,8.01 39.83,17.59 60.22,25.23 8.74,4.77 18.03,8.54 27.78,10.71 13.04,2.71 25.04,8.86 38.02,11.86 4.42,1.61 10.69,0.96 12.39,6.48 3.99,-1.4 8.54,-0.9 12.29,-2.94 3.4,-4.77 2.86,-11.14 3.43,-16.66 -1.26,1.85 -2.43,3.74 -3.57,5.66 -0.8,-2.84 -1.78,-5.63 -2.6,-8.46 -2.84,6.17 -0.67,12.68 1.88,18.51 -0.72,-0.06 -2.15,-0.18 -2.87,-0.24 -3.13,-8.84 -6.5,-17.65 -8.23,-26.89 -3.25,-13.67 -4.34,-27.88 -8.86,-41.23 -1.13,12.08 1.45,23.92 3.38,35.76 -1.65,-3.43 -3.75,-6.74 -4.35,-10.54 -1.31,-9.48 -2.76,-19.18 -0.69,-28.67 0.69,-0.37 2.05,-1.12 2.73,-1.49 7.04,18.5 7.26,38.79 13.19,57.65 1.81,-3.89 3.21,-7.96 4.54,-12.03 -1.65,0.06 -3.29,0.13 -4.92,0.18 3.47,-10.44 1.93,-21.31 2.53,-32.02 0.69,2.23 1.36,4.49 2.03,6.77 3.03,-2.28 5.93,-4.73 9.09,-6.82 -0.73,1.02 -1.46,2.04 -2.19,3.06 0.59,0.34 1.19,0.69 1.81,1.05 -4.45,3.28 -7.55,7.88 -9.81,12.85 4.35,-3.72 7.76,-8.39 12.13,-12.06 -3,4.8 -6.19,9.5 -9.04,14.41 -2.32,4.08 -0.29,8.86 -0.31,13.28 3.36,-4.77 8.52,-8.58 10.2,-14.32 1.08,-8.76 0.99,-17.62 1.62,-26.41 -3.55,1.8 -7.26,3.32 -11.2,3.97 -1.32,-6.17 2.76,-10.11 7.63,-12.61 -10.91,-7.24 -23.29,-11.45 -35.58,-15.69 -12.46,-5.15 -24.71,-10.79 -37.18,-15.9 2.97,26.91 12.32,52.4 19.8,78.25 1.56,4.75 3,9.93 7.05,13.22 -1.24,0.23 -2.48,0.44 -3.69,0.68 -2.94,-6.63 -5.69,-13.34 -7.93,-20.24 -7.37,-23.81 -14.59,-47.82 -17.32,-72.69 -20.46,-9.09 -41.14,-17.64 -61.81,-26.24 -11.76,-4.96 -22.67,-11.68 -34.12,-17.29 1.4,12.49 5.83,24.29 8.9,36.4 4.21,16.52 11,32.49 12.73,49.57 -2.54,-4.62 -3.84,-9.79 -5.41,-14.78 -6.5,-23.84 -14.31,-47.35 -19.32,-71.56 l 0.19,-0.78 c -3.25,-1.85 -6.52,-3.67 -9.75,-5.53 m -64.02,4.23 c 2.09,7.79 5.31,15.21 8.71,22.51 1.78,-0.39 3.57,-0.76 5.36,-1.11 -2.45,-7.97 -5.8,-15.62 -8.24,-23.59 -1.94,0.75 -3.88,1.48 -5.83,2.19 m 31.01,-1.41 c 1.56,4.92 2.26,10.01 3.06,15.09 1.65,0.63 3.44,0.58 5.18,0.68 -0.52,-3.49 -0.3,-7.02 0.84,-10.36 -3.07,-1.75 -6.08,-3.62 -9.08,-5.41 m -42.06,5.22 c 2.89,7.58 5.66,15.21 8.84,22.69 2.73,-0.79 5.47,-1.53 8.23,-2.22 -2.66,-7.83 -6.31,-15.37 -7.93,-23.51 -3.05,1.01 -6.1,2.02 -9.14,3.04 m -11.34,2 c 1.68,8.88 3.83,17.65 5.68,26.49 2.54,-1.01 5.03,-2.1 7.49,-3.29 -2.12,-8.03 -3.88,-16.14 -5.26,-24.32 -2.6,0.46 -5.37,0.64 -7.91,1.12 m -138.13,1.07 c 2.39,1.52 4.9,2.82 7.5,3.96 -2.48,-1.38 -4.98,-2.7 -7.5,-3.96 m 128.05,0.72 c 3.48,9.47 6.89,19.1 12.08,27.79 -0.28,-9.79 -2.83,-19.26 -5.04,-28.74 -2.36,0.29 -4.7,0.61 -7.04,0.95 m -13.23,4.15 c 2.88,9.65 7.57,18.63 10.79,28.17 2.26,-0.68 4.51,-1.38 6.76,-2.09 -2.77,-9.68 -4.54,-19.64 -7.88,-29.15 -3.23,0.99 -6.46,2 -9.67,3.07 M 336.8,512 c 3.87,10.6 7.75,21.22 12.81,31.32 0.3,-1.93 0.91,-5.79 1.21,-7.73 0.44,3.64 0.64,7.28 0.88,10.95 2.42,0.9 4.86,1.79 7.31,2.64 -5.56,-13.06 -9.93,-26.6 -16.08,-39.4 -2.03,0.77 -4.08,1.51 -6.13,2.22 m -10.99,2.21 c 2.52,7.69 4.26,15.89 9.3,22.42 0.17,-5.08 1.01,-10.11 1.3,-15.17 -0.21,-3.01 -1.48,-5.81 -2.33,-8.67 -2.76,0.46 -5.51,0.94 -8.27,1.42 m 96.97,1.04 c 1.02,8.56 3.58,16.8 6.27,24.96 -0.82,-8.59 -3.35,-16.9 -6.27,-24.96 m -113.09,5.89 c 6.25,3.09 11.97,7.33 18.69,9.41 -1.77,-4.27 -2.33,-9.89 -6.97,-12.09 -3.78,-2.83 -8.37,0.55 -11.72,2.68 M 427.1,518.1 c 0.9,3.12 1.81,6.25 2.82,9.35 0.65,-3.5 1.03,-7.09 1.4,-10.61 -1.41,0.41 -2.82,0.84 -4.22,1.26 m -16.95,0.77 c 1.61,5.99 3.14,12.01 4.77,18 2.83,-0.65 5.67,-1.29 8.54,-1.8 0.16,0.77 0.49,2.3 0.65,3.07 -2.7,0.86 -5.42,1.63 -8.16,2.35 0.67,4.84 1.68,9.62 2.35,14.47 3.21,-2.15 6.48,-4.2 9.78,-6.22 -2.42,-10.45 -5.01,-20.89 -9.13,-30.82 -2.95,0.29 -5.88,0.62 -8.8,0.95 m -24.93,1.03 c -1.11,0.94 -0.6,3.21 0.89,3.48 2.05,-0.26 1.01,-4.23 -0.89,-3.48 m 16.79,2.09 c 2.22,6.02 4.64,11.97 7.15,17.88 1.01,-0.39 2.03,-0.78 3.04,-1.17 -1.33,-6.34 -3.26,-12.56 -5.05,-18.77 -1.72,0.68 -3.43,1.36 -5.14,2.06 m -65.6,-0.53 c 1.59,7.02 1.21,16.25 8.3,20.31 -2.09,-7.02 -4.47,-14.03 -8.3,-20.31 m 54.43,4.68 c 2.16,6.43 4.51,12.79 7.02,19.1 2.73,-1.32 5.47,-2.62 8.26,-3.81 -1.79,-6.32 -4.24,-12.44 -6.44,-18.61 -2.94,1.13 -5.89,2.23 -8.84,3.32 m -3.58,1.17 c 0.41,7.8 1.95,15.71 5.51,22.71 0.59,-1.59 1.67,-3.08 1.7,-4.82 -1.67,-6.22 -3.72,-12.44 -7.21,-17.89 m -10.74,5.55 1.88,0.68 c 0.36,3.52 0.44,7.23 2.37,10.33 -0.38,-0.19 -1.13,-0.58 -1.51,-0.77 1.63,3.12 2.97,6.39 3.59,9.88 1.73,-0.8 3.47,-1.58 5.23,-2.31 -1.11,-7.35 -2.56,-14.63 -4.19,-21.86 -2.51,1.25 -5,2.55 -7.37,4.05 m 77.68,-1.12 c 2.78,10.93 6.43,21.66 8.29,32.81 0.94,4.65 1.53,9.46 3.54,13.81 2.13,4.36 0.28,9.42 1.59,13.98 0.47,3.86 4.47,5.5 7.41,7.25 -8.03,-22.3 -10.71,-46.3 -20.83,-67.85 m -81.96,1.36 c 0.17,6.77 3.07,13.02 5.5,19.23 -1.17,-6.58 -2.16,-13.35 -5.5,-19.23 m -4.82,2.28 c 0.48,3.57 1.53,7.04 3.15,10.26 -0.82,-3.5 -1.52,-7.05 -3.15,-10.26 m -8.62,3.98 c 1.38,6.67 4.19,13.38 10.3,17.02 -1.1,-6.61 -2.77,-13.11 -4.88,-19.46 -1.8,0.82 -3.61,1.63 -5.42,2.44 m 94.3,-1.58 c 0.69,9.48 3.51,18.6 6.73,27.5 -1.17,-9.39 -3.65,-18.58 -6.73,-27.5 m -40.99,3.48 c -1.74,5.42 1.13,10.58 3.82,15.1 -0.39,-5.2 -1.11,-10.53 -3.82,-15.1 m 38.44,0.27 c -0.84,3.9 -1.33,7.86 -1.29,11.87 1.95,-3.68 2.88,-7.87 1.29,-11.87 m 191.56,1.86 c 0.41,0.92 0.82,1.84 1.24,2.77 1.39,-1.2 2.81,-2.37 4.23,-3.55 -1.82,0.3 -3.64,0.56 -5.47,0.78 m -242.73,5.57 c 1.59,5.4 4.19,10.45 7.56,14.96 0.03,-3.86 -0.27,-7.71 -0.38,-11.56 1.18,2.45 2.19,4.98 3.11,7.56 l 2.44,-0.56 c -0.75,-5.37 -2.82,-10.42 -4.84,-15.41 -2.58,1.75 -5.11,3.59 -7.89,5.01 m 245.2,3.75 c 3.37,-1.75 5.75,-4.76 6.9,-8.36 -3.99,1 -6.56,4.31 -6.9,8.36 M 393.6,566.62 c 1.71,-0.61 3.41,-1.27 5.14,-1.85 -0.45,1.35 -0.9,2.7 -1.33,4.07 1.83,-1.23 3.74,-2.41 5.22,-4.07 -1.35,-5.36 -4.15,-10.21 -6.23,-15.3 -7.35,2.8 -2.55,11.39 -2.8,17.15 m 57.92,-17.14 c -0.15,2.67 -0.15,5.36 0,8.04 0.56,-2.66 0.56,-5.39 0,-8.04 m -77.22,3.25 c -0.54,1.75 -1.06,3.5 -1.57,5.26 1.14,-0.45 2.28,-0.89 3.43,-1.32 -0.63,-1.32 -1.25,-2.63 -1.86,-3.94 m 52.04,0.54 c -1.87,1 -5.61,3.01 -7.48,4.01 0.42,1.37 0.83,2.75 1.22,4.14 2.13,-2.68 4.18,-5.44 6.26,-8.15 m -46.24,5.83 c 2.26,1.85 4.44,4.57 7.57,4.75 4.29,-1.67 2.76,-7.3 2.51,-10.65 -3.61,1.51 -6.98,3.52 -10.08,5.9 m -12.44,5.13 c 13.96,5.8 27.73,12.03 41.65,17.92 -4.22,-8.51 -14.95,-8.54 -22.24,-13.08 -6.13,-2.49 -12.65,-9.09 -19.41,-4.84 m 41.15,3.98 c -2.51,0.34 -5.02,0.75 -7.51,1.24 2.92,1.86 6.01,3.41 9.2,4.76 2.82,-3.87 6.31,-8.07 4.67,-13.22 -3.09,1.41 -5.07,4.17 -6.36,7.22 m 47.61,-1.93 c 0.69,3.85 2,7.56 3.62,11.12 -0.3,-3.97 -1.46,-7.8 -3.62,-11.12 m -42.37,8.42 c 1.89,-1.6 3.43,-3.59 3.35,-6.19 -1.27,1.97 -2.38,4.04 -3.35,6.19 m 3.65,1.37 c 1.08,1.06 2.17,2.12 3.26,3.18 -0.42,-1.82 -0.83,-3.64 -1.25,-5.45 -0.68,0.75 -1.35,1.5 -2.01,2.27 m 31.42,-2.3 c 0.45,2.84 0.95,5.78 1.63,8.62 -0.48,-2.87 -1.08,-5.8 -1.63,-8.62 m 12.35,1.8 c -0.51,4.75 0.43,9.48 2.38,13.81 -0.47,-4.66 -1.25,-9.27 -2.38,-13.81 m -7.58,1.04 c 0.76,2.71 1.8,5.34 3.22,7.78 -0.76,-2.72 -1.81,-5.34 -3.22,-7.78 m 190.17,1.75 c -1.48,-0.26 -2.67,1.82 -1.49,2.87 1.71,1.42 3.64,-2.32 1.49,-2.87 m -192.45,9.05 c -1.12,1.02 0.53,3.15 1.78,2.18 1.11,-1.04 -0.54,-3.17 -1.78,-2.18 m 3,2.18 c 3.19,4.22 7.92,6.66 13.1,7.43 -0.92,-6.23 -7.74,-7.92 -13.1,-7.43 m 173.53,28.68 c -1.62,-0.06 -1.77,2.67 -0.08,2.66 1.62,0.07 1.74,-2.7 0.08,-2.66 m 3.3,17.01 c 2.41,-0.57 4.82,-1.16 7.23,-1.75 0.52,-5.37 1,-10.74 1.17,-16.11 -4.56,4.88 -8.75,10.81 -8.4,17.86 z"
         inkscape:connector-curvature="0" />
      <path
         id="path29847"
         d="m 278.76,113.56 c 0.81,-0.16 2.44,-0.5 3.25,-0.67 6.85,8.96 16.81,14.25 25.65,20.85 -5.79,-1.86 -11.36,-4.33 -16.85,-6.91 3.76,13.1 12.3,24.04 18.28,36.12 2.6,4.88 4.46,10.11 7.19,14.93 -1.54,0.77 -3.07,1.57 -4.6,2.38 -2.6,-4.29 -4.41,-8.98 -6.53,-13.5 -5.17,-10.38 -12.05,-19.87 -16.46,-30.63 -3.14,-7.6 -8.65,-14.31 -9.93,-22.57 z"
         inkscape:connector-curvature="0" />
      <path
         id="path29849"
         d="m 267.24,157.33 c 9.16,1.38 16.24,7.87 23.61,12.89 7.14,5.37 16.03,11.7 16.66,21.51 -5.23,-3.82 -9.07,-9.11 -13.52,-13.74 -7.42,-6.31 -16.65,-9.84 -24.59,-15.38 -1.19,-1.53 -1.5,-3.52 -2.16,-5.28 z"
         inkscape:connector-curvature="0" />
      <path
         id="path29851"
         d="m 311.48,235.42 c 17.29,-16 33.03,-33.66 51.45,-48.43 0.5,0.57 1.01,1.16 1.53,1.74 -18.6,15.92 -35.26,33.9 -53.01,50.72 -4.12,3.77 -7.39,8.34 -10.64,12.85 6.65,-3.9 12.75,-8.66 18.74,-13.51 2.49,-2.12 5.68,-3.01 8.9,-3.18 -6.34,6.72 -13.69,12.43 -21.39,17.5 -2.79,3.22 -6.88,1.85 -10.39,1.47 4.12,-6.96 8.79,-13.71 14.81,-19.16 z"
         inkscape:connector-curvature="0" />
      <path
         id="path29853"
         d="m 364.23,201.37 c 0.96,-3.92 1.89,-8.08 4.7,-11.14 -0.89,3.97 -2.79,7.59 -4.7,11.14 z"
         inkscape:connector-curvature="0" />
      <path
         id="path29855"
         d="m 332.86,202.4 c 2.68,-3.33 5.77,-6.33 9.28,-8.78 -2.21,3.74 -5.39,6.82 -9.28,8.78 z"
         inkscape:connector-curvature="0" />
      <path
         id="path29857"
         d="m 504.34,196.66 c 1.13,-1.03 3.02,0.86 2,2 -1.16,1.07 -3.08,-0.85 -2,-2 z"
         inkscape:connector-curvature="0" />
      <path
         id="path29859"
         d="m 362.08,201.31 c 1.52,0 1.25,2.45 -0.16,2.38 -1.53,-0.01 -1.26,-2.46 0.16,-2.38 z"
         inkscape:connector-curvature="0" />
      <path
         id="path29861"
         d="m 353.89,211.53 c 1.71,-2.04 3.6,-3.93 5.64,-5.64 -1.34,2.36 -3.28,4.3 -5.64,5.64 z"
         inkscape:connector-curvature="0" />
      <path
         id="path29863"
         d="m 330.08,208.31 c 1.52,0 1.25,2.45 -0.16,2.38 -1.53,-0.01 -1.26,-2.46 0.16,-2.38 z"
         inkscape:connector-curvature="0" />
      <path
         id="path29865"
         d="m 403.97,235.97 c 3.24,-4 5.89,-8.43 9.11,-12.45 -2.17,8.71 -8.99,15.1 -14.4,21.89 0.7,0.11 2.11,0.33 2.81,0.44 -2.94,1.7 -6.02,3.16 -9.2,4.37 2.66,-5.7 8.2,-9.14 11.68,-14.25 z"
         inkscape:connector-curvature="0" />
      <path
         id="path29867"
         d="m 405.13,226.95 c 3.34,-0.53 0.03,4.27 -0.82,1.13 0.21,-0.28 0.61,-0.85 0.82,-1.13 z"
         inkscape:connector-curvature="0" />
      <path
         id="path29869"
         d="m 465.55,239.15 c 5.78,0.39 10.19,5.2 16.22,4.65 23.93,2.46 48.08,1.14 72.02,3.57 2.07,0.6 3.39,2.57 4.98,3.93 -5.83,0.87 -11.68,1.55 -17.52,2.32 0.04,-0.83 0.08,-1.66 0.13,-2.49 -20.22,-1.15 -40.51,-2.39 -60.73,-0.8 -6.09,-1.6 -12.94,-4.72 -15.1,-11.18 z"
         inkscape:connector-curvature="0" />
      <path
         id="path29873"
         d="m 385.47,266.48 c 3.03,-5.47 8.41,-9.02 14.04,-11.39 -3.82,4.67 -8.23,9.31 -14.04,11.39 z"
         inkscape:connector-curvature="0" />
      <path
         id="path29875"
         d="m 374.5,298.54 c 5.26,-9.15 13.86,-15.86 21.77,-22.67 -6.6,8.1 -13.36,16.37 -21.77,22.67 z"
         inkscape:connector-curvature="0" />
      <path
         id="path29877"
         d="m 449.9,288.71 c 10.53,0.76 19.64,6.32 27.8,12.61 6.36,5.27 14.63,8.6 19.34,15.66 -2.44,0.41 -5.29,2.38 -7.61,0.59 -5.63,-4.33 -10.58,-9.59 -16.65,-13.35 -7.26,-4.35 -15.11,-7.51 -22.61,-11.4 -0.09,-1.37 -0.18,-2.75 -0.27,-4.11 z"
         inkscape:connector-curvature="0" />
      <path
         id="path29879"
         d="m 748.08,339.31 c 1.51,0 1.24,2.45 -0.16,2.38 -1.53,-0.01 -1.27,-2.46 0.16,-2.38 z"
         inkscape:connector-curvature="0" />
      <path
         id="path29881"
         d="m 747.22,344 c 1.8,-0.35 1.8,3.34 0,3 -1.08,-0.58 -1.08,-2.43 0,-3 z"
         inkscape:connector-curvature="0" />
      <path
         id="path29883"
         d="m 111.15,346.57 c 1.86,0.96 -0.87,4.06 -2.38,3 -0.69,-1.38 1.03,-3 2.38,-3 z"
         inkscape:connector-curvature="0" />
      <path
         id="path29887"
         d="m 104.42,356.72 c 1.36,-0.88 3.19,1.36 2.16,2.56 -1.36,0.88 -3.2,-1.36 -2.16,-2.56 z"
         inkscape:connector-curvature="0" />
      <path
         id="path29889"
         d="m 748.13,362.53 c 1.17,-0.93 2.55,1.11 1.33,1.92 -1.2,0.98 -2.54,-1.11 -1.33,-1.92 z"
         inkscape:connector-curvature="0" />
      <path
         id="path29893"
         d="m 302.54,381.27 c 0.87,-1.15 2.84,0.32 1.92,1.46 -0.88,1.14 -2.84,-0.33 -1.92,-1.46 z"
         inkscape:connector-curvature="0" />
      <path
         id="path29895"
         d="m 258.41,411.4 c 0.79,-1.29 1.59,-2.56 2.38,-3.84 1.13,1.01 2.26,2.01 3.4,3.02 -1.94,0.19 -3.87,0.45 -5.78,0.82 z"
         inkscape:connector-curvature="0" />
      <path
         id="path29897"
         d="m 764.41,442.38 c 4.18,-9.57 6.39,-20.73 14.61,-27.85 -10.65,18.32 -14.56,39.59 -24.93,58.04 1.78,-10.54 7.01,-20.09 10.32,-30.19 z"
         inkscape:connector-curvature="0" />
      <path
         id="path29899"
         d="m 741.17,461.11 c 1.64,-0.66 2.18,2.02 0.66,2.46 -1.62,0.61 -2.25,-2.06 -0.66,-2.46 z"
         inkscape:connector-curvature="0" />
      <path
         id="path29901"
         d="m 728.53,490.65 c 3.61,-9.12 5.98,-18.86 11.36,-27.17 -1.21,9.97 -6.25,18.86 -9.08,28.37 -5.47,15.48 -11.55,30.77 -18.31,45.72 3.51,-16.22 10.49,-31.35 16.03,-46.92 z"
         inkscape:connector-curvature="0" />
      <path
         id="path29903"
         d="m 750.88,481.45 c 0.24,-3.44 1.26,-6.85 3.83,-9.29 -0.94,3.22 -2.17,6.36 -3.83,9.29 z"
         inkscape:connector-curvature="0" />
      <path
         id="path29905"
         d="m 722.05,481.73 c 0.51,0.39 1.54,1.17 2.06,1.57 -2.37,7.02 -5.41,13.77 -8.35,20.57 -4.72,13.26 -9.31,26.6 -15.2,39.41 -2.5,5.61 -3.64,11.99 -7.96,16.62 5.28,-16.41 12.48,-32.16 17.77,-48.58 3.46,-10.02 7.26,-19.94 11.68,-29.59 z"
         inkscape:connector-curvature="0" />
      <path
         id="path29907"
         d="m 750.08,482.31 c 1.51,0 1.24,2.45 -0.16,2.38 -1.53,-0.01 -1.27,-2.46 0.16,-2.38 z"
         inkscape:connector-curvature="0" />
      <path
         id="path29909"
         d="m 748.17,486.17 c 1.62,-0.53 2.17,0.03 1.66,1.66 -1.64,0.51 -2.19,-0.04 -1.66,-1.66 z"
         inkscape:connector-curvature="0" />
      <path
         id="path29911"
         d="m 464.19,515.83 c -1.98,-5.79 0.05,-11.83 1.57,-17.45 -1.53,9.49 0.56,18.75 4.36,27.39 5.6,15.49 5.94,32.25 9.98,48.12 0.79,3.16 2.79,5.78 4.62,8.41 -1.22,-0.73 -2.43,-1.45 -3.64,-2.17 0.35,2.6 0.68,5.21 0.94,7.83 -7.83,-21.22 -12.31,-43.61 -21.01,-64.55 -1.23,-7.87 -3.8,-16.05 -0.95,-23.85 1.05,15.83 7.69,30.62 11.82,45.78 -1.59,-10.07 -4.54,-19.84 -7.69,-29.51 z"
         inkscape:connector-curvature="0" />
      <path
         id="path29913"
         d="m 483.27,508.41 c 4.2,8.14 7.01,16.9 9.61,25.65 4.46,15.16 10.13,30.07 12.27,45.8 1.1,7.64 2.54,15.23 4.54,22.69 -5.52,-6.82 -4.89,-16.31 -7.07,-24.39 -4.13,-23.87 -14.9,-46 -19.35,-69.75 z"
         inkscape:connector-curvature="0" />
      <path
         id="path29915"
         d="m 474.97,511.78 c 0.67,0.14 1.99,0.41 2.66,0.54 2.84,11.92 6.24,23.71 9.85,35.42 -7.21,-10.64 -8.58,-23.99 -12.51,-35.96 z"
         inkscape:connector-curvature="0" />
      <path
         id="path29917"
         d="m 500.3,523.38 c 3.9,8.58 6.04,17.84 9.9,26.45 5.01,13.09 12.63,25.41 14.68,39.47 -5.07,-11.43 -9.3,-23.2 -14.5,-34.57 -4.11,-10.18 -8.71,-20.35 -10.08,-31.35 z"
         inkscape:connector-curvature="0" />
      <path
         id="path29919"
         d="m 512.98,530.7 c 3.24,9.16 6.44,18.33 9.88,27.42 1.39,3.62 2.33,7.45 2.33,11.35 -4.89,-12.62 -10.64,-25.18 -12.21,-38.77 z"
         inkscape:connector-curvature="0" />
      <path
         id="path29921"
         d="m 529.13,537.53 c 1.17,-0.93 2.55,1.11 1.33,1.92 -1.2,0.98 -2.54,-1.12 -1.33,-1.92 z"
         inkscape:connector-curvature="0" />
      <path
         id="path29923"
         d="m 529.48,540.28 c 1.93,4.64 3.61,9.46 4.24,14.48 -3.21,-4.12 -3.39,-9.56 -4.24,-14.48 z"
         inkscape:connector-curvature="0" />
      <path
         id="path29925"
         d="m 488.01,550.49 c 1.36,2.17 2.37,4.53 3.08,7 -1.3,-2.21 -2.3,-4.57 -3.08,-7 z"
         inkscape:connector-curvature="0" />
      <path
         id="path29927"
         d="m 546.62,551.38 c 2.56,7.65 5.81,15.22 7.05,23.25 -4.97,-6.69 -6.3,-15.17 -7.05,-23.25 z"
         inkscape:connector-curvature="0" />
      <path
         id="path29929"
         d="m 533.67,554.26 c 2.86,6.12 5.03,12.67 5.84,19.4 -2.81,-6.19 -4.86,-12.68 -5.84,-19.4 z"
         inkscape:connector-curvature="0" />
      <path
         id="path29931"
         d="m 689.21,568.64 c 0.67,-2.69 1.65,-5.31 3.43,-7.46 -0.93,2.57 -2.05,5.09 -3.43,7.46 z"
         inkscape:connector-curvature="0" />
      <path
         id="path29933"
         d="m 651.35,583.39 c 2.14,-6.86 3.64,-14.26 8.1,-20.1 -2.37,9.63 -6.03,18.93 -7.97,28.68 -0.36,2.08 -1.32,3.98 -2.35,5.81 -0.68,-4.91 0.74,-9.76 2.22,-14.39 z"
         inkscape:connector-curvature="0" />
      <path
         id="path29935"
         d="m 588.27,564.08 c 2.65,1.55 5.04,3.71 5.96,6.75 5.9,15.87 11,32.03 17.19,47.8 2.35,6.34 6.64,12.23 6.54,19.26 -1.06,-1.22 -2.25,-2.35 -3,-3.78 -10.04,-21.8 -15.84,-45.24 -24.88,-67.42 -3.78,13.22 1.97,26.42 2.82,39.62 -4.41,-13.42 -10.93,-28.27 -4.63,-42.23 z"
         inkscape:connector-curvature="0" />
      <path
         id="path29937"
         d="m 525.53,568.75 c 3.25,4.3 5.2,9.38 7.46,14.24 4.91,11.73 10.3,23.25 15.71,34.75 -6.32,-6.8 -9.67,-15.59 -13.44,-23.92 -3.39,-8.29 -8.1,-16.17 -9.73,-25.07 z"
         inkscape:connector-curvature="0" />
      <path
         id="path29939"
         d="m 689.19,569.5 c 1.5,-0.11 1.43,2.38 0.01,2.4 -1.52,0.08 -1.4,-2.35 -0.01,-2.4 z"
         inkscape:connector-curvature="0" />
      <path
         id="path29941"
         d="m 553.16,574.26 c 3.71,4.74 5.58,10.63 6.57,16.5 -3.92,-4.62 -6.05,-10.51 -6.57,-16.5 z"
         inkscape:connector-curvature="0" />
      <path
         id="path29943"
         d="m 540.17,576.17 c 1.62,-0.53 2.17,0.03 1.66,1.66 -1.63,0.51 -2.19,-0.04 -1.66,-1.66 z"
         inkscape:connector-curvature="0" />
      <path
         id="path29945"
         d="m 675.06,592.31 c 0.82,-5.91 2.85,-11.58 5.73,-16.8 -1.04,5.85 -3.05,11.5 -5.73,16.8 z"
         inkscape:connector-curvature="0" />
      <path
         id="path29947"
         d="m 541.22,578.38 c 9.14,15.06 13.23,32.56 18.21,49.29 -4.44,-7.31 -6.19,-15.83 -9.3,-23.72 -2.71,-8.62 -7.02,-16.71 -8.91,-25.57 z"
         inkscape:connector-curvature="0" />
      <path
         id="path29949"
         d="m 482.21,588.62 c 1.64,-1.47 2.92,2.04 1.31,2.79 -1.48,0.41 -2.24,-1.84 -1.31,-2.79 z"
         inkscape:connector-curvature="0" />
      <path
         id="path29951"
         d="m 525,589.54 c 1.31,2.58 2.2,5.35 2.78,8.2 -1.49,-2.52 -2.33,-5.34 -2.78,-8.2 z"
         inkscape:connector-curvature="0" />
      <path
         id="path29953"
         d="m 559.08,590.34 c 5.02,5.17 6.72,12.41 9.8,18.71 1.95,4.58 4.95,8.61 6.99,13.15 -4.54,-3.04 -6.67,-8.31 -9.07,-13 -2.7,-6.23 -5.99,-12.26 -7.72,-18.86 z"
         inkscape:connector-curvature="0" />
      <path
         id="path29955"
         d="m 657.22,610.41 c 2.28,-0.72 1.5,3.19 -0.31,3.03 -1.54,-0.34 -0.79,-2.6 0.31,-3.03 z"
         inkscape:connector-curvature="0" />
      <path
         id="path29957"
         d="m 614.12,619.52 c 1.3,-1.04 2.87,1.2 1.56,2.15 -1.32,1.06 -2.89,-1.21 -1.56,-2.15 z"
         inkscape:connector-curvature="0" />
    </g>
  </g>
  <metadata
     id="metadata29959">
    <rdf:RDF>
      <cc:Work>
        <dc:format>image/svg+xml</dc:format>
        <dc:type
           rdf:resource="http://purl.org/dc/dcmitype/StillImage" />
        <cc:license
           rdf:resource="http://creativecommons.org/licenses/publicdomain/" />
        <dc:publisher>
          <cc:Agent
             rdf:about="http://openclipart.org/">
            <dc:title>Openclipart</dc:title>
          </cc:Agent>
        </dc:publisher>
        <dc:title>Matches</dc:title>
        <dc:date>2010-09-01T06:34:55</dc:date>
        <dc:description>Matches, bujung, drawing, matchbox, b_w</dc:description>
        <dc:source>https://openclipart.org/detail/83089/matches-by-aungkarns</dc:source>
        <dc:creator>
          <cc:Agent>
            <dc:title>aungkarns</dc:title>
          </cc:Agent>
        </dc:creator>
        <dc:subject>
          <rdf:Bag>
            <rdf:li>Matches</rdf:li>
            <rdf:li>bujung</rdf:li>
            <rdf:li>drawing</rdf:li>
          </rdf:Bag>
        </dc:subject>
      </cc:Work>
      <cc:License
         rdf:about="http://creativecommons.org/licenses/publicdomain/">
        <cc:permits
           rdf:resource="http://creativecommons.org/ns#Reproduction" />
        <cc:permits
           rdf:resource="http://creativecommons.org/ns#Distribution" />
        <cc:permits
           rdf:resource="http://creativecommons.org/ns#DerivativeWorks" />
      </cc:License>
    </rdf:RDF>
  </metadata>
</svg>
